<mxfile host="app.diagrams.net" agent="Mozilla/5.0 (Windows NT 10.0; Win64; x64) AppleWebKit/537.36 (KHTML, like Gecko) Chrome/138.0.0.0 Safari/537.36" version="28.0.6">
  <diagram name="Page-1" id="S3HChX6-ZhIQvEmfwcWi">
    <mxGraphModel dx="1718" dy="1575" grid="1" gridSize="10" guides="1" tooltips="1" connect="1" arrows="1" fold="1" page="1" pageScale="1" pageWidth="850" pageHeight="1100" math="0" shadow="0">
      <root>
        <mxCell id="0" />
        <mxCell id="1" parent="0" />
        <mxCell id="6efsPeROO5TJuNPJJTds-4" value="" style="whiteSpace=wrap;html=1;fillColor=#f8cecc;strokeColor=#b85450;" vertex="1" parent="1">
          <mxGeometry x="-24.1" y="890" width="584.1" height="380" as="geometry" />
        </mxCell>
        <mxCell id="SP_JeRSVCv52ay304UxJ-42" value="" style="rounded=0;whiteSpace=wrap;html=1;" parent="1" vertex="1">
          <mxGeometry x="-180" y="140" width="480" height="340" as="geometry" />
        </mxCell>
        <mxCell id="SP_JeRSVCv52ay304UxJ-1" value="&lt;b&gt;Remote Repo&lt;/b&gt;" style="rounded=1;whiteSpace=wrap;html=1;fillColor=#d5e8d4;strokeColor=#82b366;" parent="1" vertex="1">
          <mxGeometry x="280" y="40" width="120" height="60" as="geometry" />
        </mxCell>
        <mxCell id="SP_JeRSVCv52ay304UxJ-2" value="" style="sketch=0;aspect=fixed;pointerEvents=1;shadow=0;dashed=0;html=1;strokeColor=none;labelPosition=center;verticalLabelPosition=bottom;verticalAlign=top;align=center;fillColor=#00188D;shape=mxgraph.azure.laptop" parent="1" vertex="1">
          <mxGeometry x="-160" y="320" width="216.67" height="130" as="geometry" />
        </mxCell>
        <mxCell id="SP_JeRSVCv52ay304UxJ-4" value="" style="shape=image;verticalLabelPosition=bottom;labelBackgroundColor=default;verticalAlign=top;aspect=fixed;imageAspect=0;image=data:image/png,iVBORw0KGgoAAAANSUhEUgAAANAAAADACAYAAAB1cu3vAAAAAXNSR0IArs4c6QAAAARnQU1BAACxjwv8YQUAAAAJcEhZcwAAHYcAAB2HAY/l8WUAAGz+SURBVHhe7P13mGXXXecLf1bY6cQKnVvdrZyjLckWzhEbA4PHGIxnBjDGhIuBgbl3hoEJzJ0XJr0DQwYbcAATbJwNxkmWLQfZlmTlLLWkzl3xxJ1WuH/sc6qrq7vVbdSSqqT69LOertqnzj5hr+9ea/3WL4hdu3Z5TsAFF1zAb/7mb3LxxRevfGidNYz31SX33i/9vDjoMhlppJTgNaiIWxfhL7/2EB/82q306hdiyiFS5OjA4b2nKAwYCToAlY9PDs6DdUd+BnSjxblXXkGqwVlPMwgxWYnTCqMVNZFTFp7SKaRKUFGADyB1kJcFC/EiZ1rPC4Tmlc0a121O2L4BTGQZ+D5Tro01HmEKAukhVCABIShMSaiTI1/AKXLPPffwq7/6q9x///0rH1pCTUxM/PrKgwBXX3017373u9mxY8fKh9Z5FhIkIXlREOo6qIA7Djve9elv8JHbHmZeNfCtM/De4cscawsCAUoFeBXghQJRVoJZaqMT+0pUUVJnestmnBI4D6FUlMbhpcAIQWodQRjTSOpo5yjTPmU6INAlraZmsmgzP4i4Ne3yVdPjbgyLVtNKA7YOYsKWQSmHMimUQygsTgicjrAyQK/4vKfCxo0bef3rX89tt93G/v37Vz4MJxLQBRdcwLvf/W7a7fbKh9Z5liKkQAQJfSn4/EN93vOFW/jCg/uZFwnR5BbMoAu+AO1QCJzzWO/wQiKVAFsgAOFGonHLxAQIqZnYvInSe6z3aKlwthKQ0wp8gPAC4QzSlwRYAlEQ2AyyAclcm1qsiCeb9ETEfYfnuHPvYR5PYW9QR/oeVoXUkhoqTEBrrBN4rbFAsPIDnyJxHPOqV72KG2+8kbm5uZUPH19A73rXu9ZHnucYWZaRBSE3PJbxJ5/7Jn9/3x4GtUmakxuxZYFLZwiUI9AKLzTWC7wXCGcRGJTziJFohPcIXwlJehCAVAFTmzdTSnBAIBXOepACqyVNoTB5TloMcUIQ1xKiWgOMohw6/ISgLFJEN2fKRmwIJilVjfuyghsWOgx7sDdTFDIgiQRJoNBKIzx459BSrPzIp0wcx1x++eV88IMfXPnQsQL6d//u3/Ga17xm+aF1ngPEQcTnbn2Av/ziLXx9JqVIpvA6qqZ1Nid2HZwtyAuHswJkiAoUUlh8mSOFBDhKOHLZNC5Makxv3YrVEiEEgapGIKcETgpqWU4QSIIopFCCfu4Y5oCoEccNnH+ckgITgI0irAiRNmBCNtkStrgtDXlsLuPgvjnyXk5LBUzVFFIYtC1A/VPHoIqNGzfSaDT46le/etRxsdyIcMEFF/Cxj33sqD9YZ20xNgwsNxQAoKtVQF7mBAEooN8f4ArD5NQG/svtki/ffAe33P8ohYoRzRbeFVAO0VpgbIAQR9/F/bI1j/AG76tRaPnx8RpIxnUuuOb55FpQWksziPClw2tFJkA7d9S5v1OESLASrC8J/JAzdMHV0xEv3zHJZRtho7kDRBNEmw4JwkW0rITcQtGHZhskOAlegR3NRMFgKKlTGSF+4Ad+4CijwlEj0C/90i+tW9yepaSFxeQpjThA4en3hsTNKUxS56NfupM/+Mw3efzgYXIVEk9MIXWILTMwOVJLnFfHCGg5gkoA4gQ2XaFDNmzfhpUC5z2R0tU6SUqMADkW+j8RW/Tx3uKdoyg8vX7BwfkBDx7o8M1H+7zizPN4PJ+kZzybw5BIFXR1ThZBXKsx8AVOSYwUGOMoS4s3nkRpQoJqHgoEQcD111+/9LrVuAs0Gg3e+MY3Lj2wzrMLGUKzHsNwCJ0hrfokfeDPv7yH//HpW9nbXWQgBCIKKJ0lL4ZgLQQBWoUrT7fqqMeeRixo1uq0GpOI1nYO13byLb+Jz6QtNrz7Dt5zN1hdY1FoOp15Wgt9Amv5NoacITlDEDlhIGiEmrpWYKjaiDe+8Y00Go2l35cE9OpXv7raA1jnWUkgVTUpMR6SCVLgfZ9/jN/51E08kLaZ3nEW9Q0bMFpihj0oC1QUEuiIsixXnm7VkXpPlhuKYYrNLQogUZh2jeFUi7NfcDm/tWcvL/jAV/mTL+1jju3sn9xCX9W5qhcyGYQkziDTHqoYIDDVqCOgGG1xAUgpefWrX33k9/EPV1999dLBdZ59GO+Y6wzwrQm6QvDbf3MT7/rkDcypSdh2AQtpzrC0lYlMKUQUEAYh3nvsMF15ulVHqRNKFGVpMGkf0g5B2iHMO0T5IsW+eV624QzOuuBF/JfMcu2Nd/Oery/SfxQWDAjqKBsircLmKZQDUDleO+SRAQdWaGVJQBdddNHSwXWehXhN3J7gznnP//rELfzVbQ9xQDVQjTZ4KPslrgStA4SS+CwlHXQx1kCtvvJsqw6tGuiwRpzE1OqSWuRpqoLJcsBk3uHCosvDs3uYnc24xuzk/PISfn9PhzfefTe/+sDjfPq+Lnd2YjrJJLa5ERvVKXFYLJajR+DlWlkS0Pbt25cOrvPsw5ewpwPv+cI3edfXbudgawvh9jMpBz3oHiaJW0QyRluJsh6MhaIAAUGy+gVkO11MNqSwBSmOFE9hBd4GBLbGvVsn2dnawoW5Jp9NMYXhwold5BMX8L4y4I8ezHj/IwX/cAjuzuEwmpwEhyI4IhNYoZUlM/bdd9+9vgZ6FnAiM/bcvOePP30DH390lr2NbfRtCMOCUEDTO3pGUpQ5UkJSj5GBJDOW0tpqLWA5xgq3mszYSWlxSlIEggKHRRBYTexDAhTGQD8wlLUSFRh84XBDRStvsMHDzSJjwg85JxjywmnJi85ocvl0k00RBA6IjryWc45LLrkElgvo3nvvPfIX66xavPe4UWcbi0MIgVIZ8/0cHTep6QCTdoniOnO54nAKb/7ATfT6A3rDIdZJvAqwQoPQIAX4Zaam46BG/fsYcS69B/uEAhJRjXOfdyVlqEBKmkFEMcyxUlAoSfzkrNhPGqdD3NDhS4GNLHHU45Jmnx/a1eYNZ2zApF1iAg6aHNuc4NWjadz6kLMGGY8EQoiln+cyRaMxRV2WFPO7iWNPz1ju6cGvvv96hgNLUXi8C5AqRKlg5Hk98pp+jqNsSSgdcaQIg5CBDblvXvDxe/r8wTfmmTMxBAlNF6Jcf+l56wJaY4xFI2XlEjMmjGOK3KAE1CbbdDpdHugU/Ps//wc+e0jTTy1ZLnBeI2WI0iFSjnyUrT3yAs9RjCnwrkQpRxhpRNhkxm/kW/0NfOxQixsO5sxbqCc14t5g6XnrAlqDjEW0XECNtE8j0gxFjf3lJHfn0/zE//vH3N8xUGvhvMaiQYR4oQFZTbWEW+a09hxG1rBKYnyOMENqOOpBDRs3WEg0f/nwIT72SIbRMNGcOPK0o06yzppi+VpEuMrVfreD99ye8mN/8Bk6my5luPsxNkxKRKCRWuOVxI/2hZxz4EGsG48QUYQNEwrhcOWAKOvQyBeJyh42L/hGKXnffQ9wyxAQRywK69/cGsG5Kgp0zHgx79xICFGdgyV86KYOf/C5uzgQn8nMvg7bX/RCBod24wMLocMrgxUGa0u8c4BEiX9KuNmzC1+Cw2G0xElF6B11mxGZDqo4SG16F3dkho89cpjFZcbIdQGtEcZCGQtneXPO8WgxxR//47f5+I03U3qB63Von3c++/YcJKhPU7oBxg9xosALAzjwFrzHPzkL8rOCIJsDO8QqQS5jjGgigiY6rCGShK1GEbY28KXHD3Fg2fPWBbRGWC6Y5cfGwvrLb+7lH29/jEf27IdsgXZi6ex7FFlv0x0IjOnjXQbkIOwodLTS0dgs/lymJVISaTEI+l6xaEP6NmGg6gx1Dbm7w0TS5vHegD3dI89b3wdaLdgCZz1eCpSuvJ9L40BJpICZEhILbdkHPwAVMtST3N6Bj375Af7kmwdAeYT0OEwlLBRCKIQMcLZY+YrfEWKUHGS5gJebv4Wr3F3E+G9c1bwbmcnjJuc+/wpsHCCkoqETijSlFIIcT3KiOIhVgkEQFIatQchFG2p8+ifW94FWF0oiwwCp1NIhAdiixBSOaQ2tCAgCCFv0aHDX4YKPf+kuPvr5G2Fl517GiY4/3Yythsvfj+Boa+JqxcWSXDsWfcHe4RHfuHUBrRI8YJzFuCN7MlpJtJAI5wnKDiLrUFjJoki4dU7xns/fzge/dBsHC7XUKU80Qqzz5LDKUwjPgi14bNhbOr4uoFWCweFEdZdeMg5Yj0JUsTzpLMSaBQI+c3+P991wD5+4fS8Hi4ipcy4/6lzL10qrZfRh2Sizcj23FkYgbSwKj/Uw9Efe77qAVgkaSSAUSlah02VZYozB4vESaEwzFHVu2Z/x5/94Ex/+xv0sqBZy4w769sjU6Hgj0GoQ0fLp2zHvcw0QZI7EKWoqIFhm9l8X0CpBGIsYpYDy3qOUQkcBIlR4DYfVBJ+4+xB/9LEbuHXvIqY+jWxM4IA06x/VIY8nomealZ4TJzu+2ggQBFISyOCofbN1Aa0WCguFweclpihBCpyAoTXM9Hp84I6U3/3UN/nCnY9ha9O0pqZwJoe8hxy5Sq92EY3x/ujRci0IyEqFUxqrqnCJMesCWi0EIUhdhQNYS2EMgyJn/8wh7n/kYX7/Izdw36wl2XYOhDGdmYNgUoJaiBse2ZhYzcJZy5Syarn05P6IoedJC2gtzmefCk72HRT5AHDYUZKXcvS/BbLckQYaI4DIEuohpkg56CM+fWCCX/jEfg4UkixukCPJ87Sa6xlDmZWosIHVDifBUnlcIypBAlWsT3Xb/6e3k6IBjXeiat5XOa5k1cuENFS2RkGVlU5TLe4cCLP0/NXalFVII1GlQPsjsnnSAlqn4mTTkDBKAIlk5AA9doK2HoElpsp9OEwNPV+jn7T55Ffu571/9yl6pQelkFIuNUbtZK+7WjjZDWatsi6gpwmPxBiHNQYlHUo6hDdIlxNKiyi7ZPkQV2/zmE3448/cw59/7mZ2dwwDEaNGAjoqlOE4G5OrHe/B8+yZtawL6GnAe48xlc+ZVmIUBWrBlRhbYrzDO8PQSR7owF/euJt3ffbbPJrG1M44n549MtKsnDL7sTf2GmClaMafZeXxtcS6gJ5ClncOrSEMdLUG8B5wGOcpRIBREXk0xd4i5F2f/Bp//Mkv061vI9p+Pp1eCqbAjxxHrbVYW+UfWFqfrIGI0vH34EcZp9eyaJZz2gQ09go+UXuusiQiV62XKQ0+z6ssN2ENophUKb41Z3n3P3ydj3/zbop4CtXeQJ6lYIZQq5xLvV/mnMnRu/trgSURLft/rU/n1gX0NFHmDlcaTJGRlSVWBRTAoQxufmCG3/vEt/irG++ho9pM7jwbMxhAdxbZjIjVihFmlBNBKYVQak0IaaVIVv6+VjltAhrfaU/Unst47wlDiQw1OgwJggCEJAfufnAvn/3STXzq+ptRUzvRrY0sHDiIiBTBhkncsEvWXTjK2iZGAho3scyDe7XzbOsLpyygGWDAaBqSj5qHnhAcEgIbBORKk5lylOGkSrTnVYAIAnBgS8gLs1R7xVpfneeJU5KtCYZ0KXxWfT8GSCtXfSOhrwry7PBo0ydG+wYp8Kl7HuI3P3sXf3hXDXHWRQxkiPUOEQBpFzMcInQDEU1hR+uccf4Cay3GVHE/UG25PJVtHN9zwjb+4NIjpEMI8EtRryXgCLwhtA6cJ1eQaYlDElp9zA13tTXh5VFtzCkLqGksiQcvHUQGH5XkJkNmKUmaQr9DmA1phDFJXCcME0Ikst/DLy5S5hnWpShdbSVaHFZ5TFQVhV7rRCRoESxtHFrhMdZUtT5NgVIhne7j0EpJa/BXn72Pv/jw/eyf14jayrOtXZZPJo/6eTSCLjfDr5U9rCfilAUUW4W0VeKFIZYUhwwkDaloO0VcayLCOnOFZO8AHu/CTKbQSZOg0SKIVZVvC4sxA4wbLu3ML6sesWZRLsCWVXV3K4HYo7VHUFCTgEoIppscJuOD376P933xEW5+LKYvpvBq9ZcPORXGchDLZ2lL9o6jhbPU1khA3Yk49ZDuEpAGa1N8IEBEOAKMh+HAcsu+OQ70Cx6bKzjUc+AcWxuKS3ZMcu7WSS6eFlXNFpeTp32klIRJA0NA5jz143yHa+qLNWBKh0gkBgdYAkokHjLDIG4zD3zoy7fy19ffy758G3mwgdR2IRkiilO+lz0znCSkW3oHwiE8eO8Q3uOdHU0xLarR5sIrrqDUEbnQBHGNIssIhEAJseoNTbLqvThfJXYxv/J8+E4ElOEQRUqUGYhqoAJmgJv2d7nz4CE+/s3H6dmQBVuj7yK8dbRkwc6WZHsr4Kcv38LZ2zawc1IQ+ioHAAAiwLqqIu3KhfKaEtBoELGBw2DJ7JAATUCEGRhuNyGf++pj/PUX7uZxq2ievZFOdggWuoQbd1H2VnkNnpMISPmxnR6Er9Y5zltwDu8tsvnsFNAp3/YWGFBqoN4EEdAp4Cu7S/7y9gP83jcf586izaNM0qltwU7twE2ewWKykTvSiC/OeH77+jv40O37uKcLQ0FVc9ACpUWJKkvmuI056mKtcrwCKy3Cl/hyiLQCqeoMlebxNOK9N9zB39z4EIfMdmrT59LpzEC5iJ5uUgxWuXi+A+TY6LCsc1Wj0rELc5ZZb9cqpyyglvUkMsQoyWOF5+MPLfChux7nxscMnXQzqjEFYQKuhLILtl/5GqsAq2t8Ka3xVw/O8d5vPMb1D/fZ2zNkTuKkB3Ek3xlr9EvtFD2Mz5A+J/SeRNYogXv3w4e/ejefuuMgB7Uk2qYxMoWuQssdtMPNMDySa3mtclRZ+xXi4Ym2OZ4rG6l1E6K8YBbLlw48zt/dcwefe2APi0UDueFS4tIQ5n3CwWEa/YO0shma+SINm1FzDs69gocHlr++6VY+ftO3uPvQYQbKY7RkYDNYo8IZk1LgpQEJ0guEkcwtwhe/cTd/8refoqM2IqYCFod3k/V3MzF9PmG6i7nHhrQazx4z3FGWt6Nme0ffHNfytV7O0hroH+69l21AVHbAxhBEDBXEFMj0EZAXsruED+5e4G9ve4z7Dg3RcQOtBVneRajplec+Cp/sQQWbCNImtltyZl3x/Rdv4F9eMcEFTcgHDxI1N2Fkm6Gr/C0TDSE5MMTaFqyw5jyddLIOrbiJcJKibwlrCq9gCDjhaboUjIDcYnWDuxbhj264lw/e9ThZYzPaHFp5yqOw5TNryz9pZ5YjHz438r9zR9asEoENgLS6EcogJPACl+dooBEnbJx9gEde8mKmzrqc5gFIZYckKKFvcVObEcXqnsba0RqQ0Xdl/31VJ3VpBNpsQBUlqABiR6HAOZAugGAXByL4u1t38/7PfJ379i6iahsQQYucEBpHstWfiNBtwC44TCmoTW/gEPCRO+7hj79yD589UBK2z2BYCnqdRRoCWrpak6alwjKJUuool/6nm2Zcq+6uAsKGAgllnqOLlAYWkztKH1A0G3zjQI/ffO+H+dy3vk2t3oR0eCTQ7ARt1WPtkiFBiCOxSOP1TU1apK66kzMCh0YISdYfMPPoI1x3xaVsmqhhhhaT5WgpCcMAKTWmXN0GhCdiSUC1tESLgEzW6COALnVZZY6czxL+25dm+Mu7DrC7ryDZTBhMUmYWn5cQxEef9TgkRRtShS0dRSTpBoLdCz3ed+9hfufmQ/zjQ10OuBb19gSSHJF2CE1BEOhVsU8kXVBFUAqHlwZLRhhDFEhEmiGSBsNI86l7Fvj//8PXuHEuZUbV6PQHaFfgnHjCtuqx1dYEvpoFaCmRowmb956gLCHPAU0c1bFpRjk3x3mTMW957XW8/iVXs2u6jk+72DwjUAIZRggpq3COVf7vRBxZA4kUZGWI9MYTYhA4bp+F/3NThz/96m086GLCnRcRN6exWV4VopUesiMVu05EUXiiMAKRk3YPgjSw7UyyaDNfemCR//jRu/m7uzs87qFAgitAlmgPVDODZxYP+XBI6XIcJbkZ4Mq8EpWTdIHP3t3hf3/iBv7xgQPk2y4g2LITaxx16fFOPWFb9UhZDb/eV6ZpWxl+JAIlJJmJQbfAaYrOIs2ix4vPnuD/+u7n8etvuYwrz6oxGYIqM0JZuTm5UVjGMzGjOF0sCcgkhkKC8tB0CfQj7ny8z198+wH+4L5HoDEFtRaFM2SLB3HDeSZjqMcKiuHRZz0OqRggY08QGii6YDPiRoNWbQJdBNxjt/MHN+7mv330Tm7Y3cPUN1YXrUxJ8g5FURzJlTaOh3k68TAYDPDWILEEYcjsMKNXKmytxl995QC/95HPcufMEDafTdrNSHtDGpMTOFMcCWc4UVvlSFl5fQuOeN6P10FaSnLZRqg6ZBmNYoHXXrqVX3vrK3nby3ay03WoCZBlQSAgiRO8F2RpibUWKY81Lqy2diKWBDRQNYbOonx1o7njgOS9N+3jw/cdIJWKpDYJeQlZD0KIE4EzGS4v0eEplEEPPYUoqrlvEEFhyA7PYgcdphsRbNrGrE/4x90D/uL2g3zikT6HbQJBgghD3CiYzC0r8fF0kjtDc6KOcCVFmiJIiNub2Ock7//aHn7/U1/kgY7Bx5PgJDgBRcFw2MdqUX3TT9RWOWokFCEEkiNrH8ZiKlLswgHOrBW87VWX84tv/C5edE6DwPUg72AyKNMcKQOCMMQ4QWHLkffC6g8IPBFLl04QEylJL3d8aV/Gex5Y4COHFPO2DXEd080gKyGMqE22IUno5JY0BU/j6LMeDxXhrYYyRNMCalAaBjYlD1Iic4j6ZI2svYXP73P87o2P8Z5vzXDbYU+qkyOu+8+ABQ6g0IYgVCjryDpDrNMMgL+/fYb/8+mbeKxTwMRWvBUwv8B0o0azEeOGHTLpEeKJ22pnPOprqQiURmuNEgLrLGVRsE3Oc90ZAW9/5QX8/PddzlVbNKa/QG+Qw8Q2hALjNKXTlB4KJ5BSoaXEmfyYO/5qayfiiIAGkCA40D3ER267mfc/8BiH5DQ0txENcxqqjlAxlI7hMKPvQNTaELWxeRUx+URIG6BsgskCslQhdBsxvQkaEfNFhyl/kMHCo6S9Lh3Z5puz8P4b7+dTtzzKnowlK9wzZYkTUjLIBkgH7Q1bUMBfffJ2/uTDn+bhVMCOc+jOL6IcbGm3MXOH8YMe8eQErsirVDxP1FY5bmSFk1ISBAGh1gghcMbii5LLpgU/+YZreMfrLmVblOL7h1CBQrc3cBiNjsAJTW49hQXnBXJ0PY1du860R3zh7voqt6YT/NyHbuP2uSbtZBODhX0EbUsqOgg2rHzud8TJuntQFpTWIpREBRpXGGRhmEwabJ3exPtekRJNTBDXa8RAa5xmTBmycoAIG4TCIyghLyCM8SIiBXIPEyNLygmFV3QhSChKi5AhWkuEh3I4IEhCcEPKzGEakzyWwl988QHef8OtzGUaNp2BzJ/Ym8A9gSVnNSALqEp8a0SosGUGvSFYQUPVUO4RTDDFQE2CTyqLW/8wl04pXnjRLv7r956H1po4rjIIee8xxiytWTOpeftX4IFckmSH8I0dDNOCFgv0ggQ9yu+9WhHiiKHHH28faCGv85EvfouF1EIk6AxniWsBznmQydKTnyp0ECBDjQw0Smuklhg8aZkz3+vwU5+9nc/e16E5gFYJqRwyHwywUhP7NiWKEk1pAzJXWYwEJTVfMnkKd3ij61gRoMKYzDiywuMFBLU6IBkOwTcm2TeE93/yZj7wqevp5p72lq3oNTyHH1Nv1pFS4rp97EK3uuvEDVS9RR4HdGpnMaAFhUW5lM1xyrXbA37wuvP412++Gq2raZ1flvzEj3J8h+GJZyjP1JT8dLEkoG93I/7my3czb0HUJJSzRE2JsyWBOPk+z5PFKoWTVUNqZBDhdUDqPAt5yjcG2/nzW2b5y68+zsGFIUoqQhSlqe7s8egaGKnxQaMq5W4yyBbAzR/9YsfBSkU5yv0RhRo1Ep0XkBUlttXm1n2Od3/qDj5286MczhNcOIEzHtvvrDzdmiMrUoT06CBCiYiQCCVDLI4yH4DcAu3tgCXu7Oal2yT/4YdfzM++7jLODgrCMKxyNIw8q51zlYVOa8IwPEYkfmyEWOMsCehrh2F/WiOVMSoAwhyvq3RKgT3xHeR0kTmDcwbrDKW3OClQcYCLFIX0EJ/DbYOA/3bfY/z3bzzEbY8b6j4mVoKuL9EuJXQlvixxSlAgKVRIfopmYgVk3T4UGaEowfTJhl0coOOYOxfgTz75dd7zuZs5yATt868maG5k2B8i85Mvglc7ZdpDImglTZo6QVmBN3Y0rQshUrD/Ydr5YX7spRfzS296MS84s0WUz4HPjlmfHpVFdcRYRCu/j5XiWkuoiYmJXwdYvObt7E0dRDWcMiBKwOONQpJg5JObppzsK/JSVK4i1uMQ1TOExEuJVwq/sAgTbfq6xR37Ojx6oEsSttgyGdCOHSKfB1eSlwXWCVQQYISm1Amo+iia48QXS3pH4DK0ckBJmQ4ohabvNbtnu/z7P/sa33zoAB3VwLQ3UUiFc5ZEeGIJ+bKOclyO/7KrBwVKBnjjMbmhtAUIi9IOAk+8/z6u2Brz1uvO54deeikXbaihbU5pIIyauNGe0Fg845/H33dmHR9/HGYN6LKPDycwxhKLnEIFq96OIsTR19d/4V2wfAS67/ABmlMboHSIoUOriLQwVUbAp2OjQqjKD08osB5rLNa6KrbTe2jnkA2pDRNMeCbXdwX/9mu38mdfe5CFQwoXNyCq02g0CGQJrspU4kfZb06KtygNFCmUhri9Ed+Y4IYH5viPf/pxvr2/y4JMCKamUKHH9w7jerOUziLC+JgRZ2Vb7YQqoCxLBmVOqT1aC2QxwB3eh9jzCK/bWvKr//yFvPMNV7Kr4cn7C4RBRNSYoGureK7lrFzbrLxxjf9+5d+tNZaU4XWBKwbUrCBxAZRVBn0vNfbpiBZ0DoFAS4XyAmmXVwdwxJNtGHaxg1km6hpabfbP57zv1kP81tdn+fSjBY+SMCAiiTSxG1C3GZH1BCtf6zh4r/CE5D6m0A0WCbjhcce7v/QAn7uzS7ztHKg1KF2Kdj2QQ3ApRZnSzdd+WiFbOrxxEEhEPYTAU6Pgkqkmr7/wHP7jj30fL9zZpgG0o4Bmo0Gel2RZTk19Z0IYi2e5iNYqSwKanI4Z9hdIZEBD1TEFSBXiEJinI+9UWeCdQyLQQqLGySZGLXt4nqhZhy3QSXfT6C2wdeIcZsKd/NY9h/jTL97D9Q90mAesd5UvnRsSu4zEnnwEGBqJCxNUo81ARXzqlr38pz/6a75y82OE134f8wtdnNaEAeS9QzCcIaxp4nodlz25EvKrAeElaAVaUtqSLOszkYR8z3e9kP/yc6/mrI1tJuIA4Qs63R55lhFFmkYk0L44aq3DyN3neKPSmJWPrVWW1kDf89P/gYX9D9EtFpjXIYhJfLSBhukzke2hHzaXRgOcqzZhhEAIiVSqSjn7JBCy8u11eKzwuNH1EN4jPMg4rFKQGQEioJSagTMUlIhI8dBBuOtgj6I0bJmeYjqp4a0nKzUi0mRC4HyJ9j3wQ/AZFJ5SBOQS4sHjEDeZQfCur8zy2x//Fo91JHp6M3bYQeo+khLvQOkaMmyC0HhnUJHEc/S8f2UblSV46to4TofKgC+g+n10vB158l4Kqg7JBrAhRDHtyOO7s5R6AypK8HkXPTjIy3bU+Levvpx3XLaRTabAB9WWhneCIIgQUuMcS97kakVyx5UjUmYdH3vMM1N6VNHDh+3RGihbE2ug5YtY7z3+C++G5SPQ68+GwcwBOn1NMrkT3IAwP0TcaHJIbV66OEgJSoNUQFVIydqnYYQ6CWoiYbH0fPy2Q/z2Fx7mk48WDMI6tZpHZzPULehckZs2hZyikJP0BXjXo8YA2jt5aC7nQ1+4nxu/+W0WB0MINA6LK492ll05BVk1LLNy+ap3V81aOjN9pneeSbPuYe4B6nIeOZilc2Ae0zwD/AK2s5czZcGPX3UZv/jdr+Kll58FrYRCm2NuCCvbc5UlAX1XYnjTi68hmdrGcN9hYumYVBkz83OQbK3+SAikkGil0EohxahUx5McfU4HoTJ0ZcgDWZ2PPCr4028v8on7hyzmBegCFjporVCBYDGDBQM6rBEGhrz7GI8a+PhND/HBL3yL2x7ZTyYCVBIjlQdVbQouNwgs//9U2tPCsjWFGBfhUqpq0zuY278X351lZ8ORpAcRaQ/qkzjRhsFjXLRR8rYXXMAvvuQyXntWjSkNhYa5+hFfxBO15ypLnzy2XX7i1efzI9ecA529FL0FRFjtwqN9NVUT1TTlae8Yp0AhRGXBq7XJalPcvL/Hn37xDt5902Pc0WvCVBvvLLafskl5NmvwZcHcQNJVW/idv7uTj970IPfPlqS6hYjreCXwwiDUEaFwAtE847gjVRvEyJQ89g7QQQB5D4RE1afomJj5VLFp8xls3TANu+/jJbs28vaXX8HbXnMh52xTYCsjiQRCwmMEs7I9V1n65JaIqTTlJy6R/MyLdtGmZLZTENRrKD+LlgqJqAo6WYs1Bj+ynEn5zAeEWRmDzSGfJSpmMGXK3R3Le+91/OqNGV+eG7IYKaJGAcOHoLOHRIY8stDkXdcv8KEv38bdB7vkcRsf13DW4soC7yzejvJ8P0F7xpHyqCnc2J1m7I+mXZekXqNTxnSSXSQ7rubAwVl6D93K667dzn9/4/fw5ivOYiIGgj7UCggckYfmKe0DPDdZEpBTNaJykStqA37mxTv5yZddzoTpUj5yN9O6RLgq9gPrqh1q6xDOIz2o1bBLmOeoMKAZOHQ6iy/6mGiC3Xaa6x+D//G5b/P3jy6QiTrU26BjHj405G++8iC/8aGbyOIY32wgazHGOzAFULnvy3Ek5nGEsySgk7WnGCHlUuJ57xzeGHxRQJFDnjHdCEn7XSgtyJDB4f0EvUO86aod/K+3vYCrdtTYGHiGaYcUT4HGo6CwhKvg8q5WlgSkbZdmq4FSkrNrOT91zQQ/fVWbqbgkN5rSVNGDfhSCO144eu+XKgc8o9iSUApUFCOiFiaoYaVEYxAi567OBP/jQ9/if372QfbrTdyRbeDX/uJT/NFHPwHtBrXJOjKUWF+M0oxWNSSkF0tZKWG0zlgxlVsNHPVehFgqQoxUIBWHOgVxHLFpUpEcvo1tw/v5zR97Df/9p17OGRoIDKnto70ioUlIg3zosdiqUPU6x+VIOMOt/8BintCc2ILK+vjBYboTO/iduy3//dMPgbRVaqPRnHflWkjop3YadzJLTzOgKofoNao9Taw1RXcWnXeoK88s24mKDue3NOe0Aw7uf5ib7roDwoj2BReRzs9R9AegY1TUwBYWjAMdIYXAjTvR8rex/D3Jk/gLnuT9P2msXRLOeF2y/DsrRQ16B6gt7uHVF23mF978Wp6/s40uHdmgS6dV0JJNGmVS5aDQQABWw5CUJk/OI38hL3nblx33pp5ocADX2EmWFUyqLoOojixXx43oxBxZ53nvcb96DSwX0Ndv+RrNWg1lBWVh0EmNFNg77HLnww/wa3/nmN0QMWwISAvqHUfLhfTqkn5NINPKmRDAmMqsPY4LsdYi9FN7GzvZSKBVD2NlVTrBSYQpCYZd3OJhbH8e39gMWqNUdWNwrhpVpdJoLRl9pCN+qXKZmIQ41mF1WecVQiCW1XBZ3rHHP58sN/RRiXuO83yvJBQFOEddCKTzZN7igho6qVM8djO7mgFvuuZS3v4938WuCcFwuMBC2aHWblHP60szi+MJ8MnSKS0/+sWSu/ueJDuIbJ9FllladOjoiHjkVb96Ofq7KP/DinigKKohGfmiOVGVYwc21ZpcfNZZ/N9vvJJL4xQe3wO+SXDGxXQbk/TzgsCs/p14Mf5sSkMQoaMEVauhm03CienquPdY43COyuooqw3iIi+X0hstfWF+1Dh6Wnc8Vop75e+nhbyPVp4w0pgwpIwSRNjAGks+N8vrz9/F21/7Sn7g5dcxGQpsllMPQrY1N1E3wZJgTqdongss9YdARdWvQhEEARpBiCPBs6sxyQ9cHPATz9vBdVs2w2LK4lyHQaNJ3JxArvbKAlCljnK6quYlNT6IIK4jmpOI9lTlNOslGA/WoVCo0Z2c0lQZaDyjHGHLvAqWDxzLheT92KccsXKNsowTHV/J8nPJ47QNElSRU3qHiWMyaygWZpgSBS8+dyc//bLn8WMvO4/LtknqkacoUlAh0odE5dFm6uXr21N5b89ljrqhmnFn0BqEQFiDdgUJlprv8oNXbedXXnkVr5n2MH8vDA7gwjo+GG20rmKsAayoIuQcWAS5CinCGnncQuoaBBHoAJAYa3FlJZpgFM7r/bLUtiyzsK2cfY063fE63/jY6e6cxgQEUQuva9jFBegcZPsEvPXas/l3b7ic11y1nQ0xhDi8KohaSbWmHS12lotn5Sh0Ot/ns40lAUmqu+mSV874OywMriiQUZuagFdtV/zaq3fytiuaNNM9FDOHKJLN49OsXryqpnBI8L5yoPAeKwN8UEO32gTtaWSjBWFchVQUBaYc1SZ1HuFGnX4somWjzfF805bXFl0umOUd8lSFJI5Tt3R5WzQxpW5Wqcd6c5y3pc7Pf+8L+NffczGv2gWoFJstsNg7SE5BjiRHUgiPVcfG7yznVN7fc5WjBCSEx7iyWkCLyudNRTWUjnHAYDhA+jmuPSfiZ647ix85byNt0YOZh48+6ypEaoVSAqFGPc7bqqNLBTpAN9oErTZRexJZr0MYVHcRayltNYXzvhIRLHPeHLWVHVpSOcKuLPtxPBGdFho18oN7kHN7eeVF2/h/vv+7+OFrdrEtKcF2GOZ9bChImi0EwUjnEi8FZoUBcaWQjieqdSqWBCRwaOVRQVUg14rRFywkXiqSwRAVWjqxJStzzp+c4MevuYx/cfkmpqLdR591FWLxWBzCOYQzCGeqYlAIpAjIlaRUEhtF6FoT1Z6ARh3ikLHT7FEiOmr0OXqEWc7xcisvF9HxnnM8Vgp0ZYvdDJvbBW++6gx++TXP582XbmHKFXT7A4ZSM0DiVIymRp2YyChCX03gTrQB8USj0joVSwJyZQZYlBRIJfGjrUQD9DODsH2ioMpgOq/rhDrk8o0hr794Mz907ROXNlkVOAOjvAvelZWLjrMjTwqwpqQsSwrnkJGm3mzRmGyjkwSCZSZov2z0WFbyYiXH6OKYA0c4VRE9EdnBu3nzyy/nv7zjVbzyvCmiziKyLJGNCeZUnbg2TZZ7ioGBErSTyAJU6VHfoZjXOcIp10gtiuKoPQI/yvuVZRnGGH79c4e54WCXh7oeoglUUqPmU3p+AIGHvq4WrUIgVDV1WI58ii/eyTqHLw2oKrZpvJ9lra0SClqHOPAQ0oFGLE3JCuGx0o7MY6N50AmmPn6lw+WKvwvDzeRpD9yQQFcJDK1xODQ6iClMgxhDIHMK3ye3A8AzLRM2hk1++y0b2LplK1unpgmBAIs0phKudbgwXno/z8SIsliYFftAZ5NlZmkfKFkFzixPzLJr6T3mP1YbqSuu6okJgqBK5zpKXSRHGSqjKCIMQ37mdRfyhnOm2BJnyGSIquf06ENeEpc1giBAjp7rRzEqyz2In3GWd/aVd2Mh0I0molbD6qBKTWsN3pYINzbAjD7L6HnHdNIn+Jzee/L0MPgeQluEdqAMIvLIwGHJieQCWb5I5gJ0shl8TJwP+O4LN/JbP/1yLjjrTDZPTRAAHldZVHUAOoRl4lnn9HLKAjreXFgIUaV5DUMubht+5iXn8M4XnMul8ZCi+wiojKTWop5F1d+pKh1slX1nXG/mxB3raWU0OvqRJ/NSSLIQIAVqYhOiNYmN6xitsaN1kXaOYOxou0w8438sH/2WCYwV+0T4FKENQhoKl5GbgtIbjCuxRUbScEQRlMM+WWfAeRs38+OvfgHveNX5vHxbyVRSI6FK+F9kWeW3OF7DLssos/IarvPkOGUBMeoIS6UtliGlpG/3sKtl+Kmrt/MvztnF2YGHYkjqJSacAO/wOJQYm/xGT656z1HneyYQy/z7lgtIjILTbNzAJa2qSnm9gUhihAoQ3uOLykpXWeZGC/uxOEa/H8VIRMtHuUBptNQ4L6uELjZAyRqBrgEBi9ZiXc40XV407XjHdWfxi99zMdfuaEF3L8LluHKIL0d+1CrAjdaww7JKcrguntPPKQtoecc66g494rAyDPMeDQ8/8bwz+LkXvJCz6wkMF+gEOWWZ461BeEcgBUpLlBJI4VdFeYujOtfykWL0WOkETgXIWp2wPUHQaqOSGkYGlH4kF39kv2hlO9k+kbMhpgjAxCCbqKhNLBvEPqZGBDMd6qLgBy7bxH/43ov4iasn2EGGdwW0z0BYj/KCMAhIophgtMYUQBSe8mVe5zvklL/Z8bpnpcvHuAVsJkNDAfUAfujSNj//4iu4ekcNOg8udUohqopmehTdeszd+Rli5Zpn5Zpo7M6jlEbFNWS9Bc02Pmni4wZCqaV4nHEw2/KbzEqz87H7RFViEmSAUDG+cKSLi5SL8wT5gOmpiLe88AJ++nuez4svaVELFnH5AmkpSQnQQYzWEVJUyT6sszjjqDJXnJhj1nvrfEecsoAYiWgspDHjkWm6SGjFLdKGo28WmQ4t//LiBv/66p183yZPECi0lkjhqx0Zb8BZvHeIVXABxx1p+U1BLAvZ0M6grcV5R4GgDAJsVEO0JxAT01U+O1FVdPCjoENnqpIgY9P38Trq0j6RMkBRNZ/i0jnc4DAbE8Pzzp7mv7zyPN75iou5ZHsN7w2d3OBqU4RRzGA2BSTGCowZeXY7D67A2xJ1jK9RxfHezzrfGacsoLFQlncEPwpVsNZSWwyQGXSCjF4zBQ5Rtx1esznm/37ZFUQ6RI1Cv53zOHPsNPAZZcWUbeWULhIS6X0Vzm5LrPO4IISkQdCcRI3cYfx4+jdqJ/p8Kw87kYMbgh/gfR/EgHbDceVF23jDq6/lJ164g3MaBcJbFlSDxfomZghxDja0E0pXlax1vjLsaC0JAo2UvvK6eAJO9B7XOTmnvA90MtwoG/+4442FNo5i7T4U8ktf+jIfHhponUVtUMMf2gebC9KtFg5OgjcEGgIhMKWhyCyImCBuUJqTFzJ+JkkCg8lSyn4PBgPICoSxRKMpa9luUuY5vsjRGpIoRgqJsYbCWMq0TnvbNP2yg+3tZ3vT89arL+HtL7qKna0AopWvuLbolJa3XV9yV98TpwcQ7bPJ0pLmOB7o+IPkKuJIvwaw/+la+E5GoCdLcC78P29/KW/cuYHk8KOkbp6JKy8iLZuwp1mZi5zAOonxIFSADCIQUBarP6uFdRInQmRUh7gBSQ2iCCMlOZaiO48UliiJQGrS0pFaQeY1pVXIM7fTmdmPO3yAs1zJ26+5il/+gWvZtjHA6icu3rXOM8fTJqA8nOPcsOR/v+Zy3rItZjLucODgfdQ3nkO0sAGCGII6joDCCHLrECMHUNzqD9grXQSyhg5bhI02QaONqMWYKMAoCTZH2JLS5JjMYEqPkzEyaiKSNq7zOMghlzUdf/D2H+JX3nAl9W4PzQCjnngKts4zx9MmoMJ1CDozbLEDfvNt13HNVIFUXQaP30erniClIlABSF0FtZUeZ32VxHGF289qxHuNkyFexxDWUUkdUW9ALYZ6jbAW4LzBOYuII1QS41yJTQf4fIg8fC9vvnIbf/e/38bLr2hD1kXXJZ3uEE9t5cuts0p42gR0htxBIOvQCqEz4Hfe8lJ+ZFeDjXoPffNtXL+DzwYoZ6uAPqnw3mGtecrzcZwWRms+g8BLidUBMm6gWpOo9iQyrOFUgI7q1Osx2hS42b0Evf3sjHJ+6zVX8L/f+go24jCizzDM6AwzGq2NmOFTm09inX86T5uA6AVQa7OQ9Wi1Q6aHBf/1e57Pj15zBmdNHSYqepAuQp4SaIWKYhAKYyxmNaTNOhnSgDd4X2C8q5xldVDFU9VauLgNYR1jHf3FOfK5PUzLLq+7aBM//4ar+Kk3vpJw9jFMOkvP55iwQdCcZn4uo3GShD/rPHM8bQLKFcz0utSbLfJsSFwMmc4NP/eaq/jR55/Lxds3sCESqHKAKAu0GNl6vUeqp+1tPgkKEEXlPCMsToCTGiEjhIww9WmoT1VTVFty7pYGP/ySS/m/3vB83vGyc8DltLZvx5kImUYIo5DOsGE6pj/srXyxdVYJT1vPTGuO5kSDbNAjQqAadYJQoxdSfuK6q7n6orPZPtlC2xKTZ5SmrBw0pSSKnvoix08WWVVlRQlb+fuNMM5jnMepGkFjgmRqI2fv2slrX3QNb/neV/CSC7cSmjnmag1mrCapt2kHDZpFRDAYYotZ6q3Vb4V8rnLaBLQ8m8vK40opZC4JkIQyxCFBOZzIUaogBNpzD6NmHyOUDtWawPkICAh1hB4OIWiAjMFU7kKUDmFd5Rejj6TePWF7inEuwrkIazXGCJwBW1Y5xK0x6FDh8BTO4qOAaGKCejuqknoUjgyINWhZArMgD6JqAsINDNmw8uXWWSWcNgGtdFVZ7g4DEEtP1usTxxoVSHrdHqWKSJM27//Hb3L91+7g3oceozM3jxh2gRwUCOnJXOVMJmSVcisMQgJdZZLB+yq2aJVjUoPTNaL2JhZszD/e/BB//LFb+cLuPt3aRraTUi/7FHlO7hMGvkUnq9aAq3/8fe5y2gQ09jhYydgFKNSWeiPAD3v4Midpb2BPCu/61K387idv4oFDKb1cIqwlzDrERYeQDPAUEihKsAUIh1BUwXlSVmmqTqGE4zOPwKcZQyNJg0key2t86oEF/vTr+3jvHUDRQ0qHDCIKWcdHNZJ6jVgrlFmfwq1WTpuAjjd9G4vHWgs2BV9WxZ7iNovA+z59M3/08S/zUCfA1jdRm9xCPdC47ix28QC66KKkI0hiyFN8nmOKHGMLrCuPxCUd57VXG81aAK6EdIBRAb69hdlgI198tMcffuEO/uqm/dzbjUllQKRBFxnhqHiZLVe9n8tzltMmoHGIw3LG4rHWkpaWzqAkjyfZYyS/8d7P8p5/uJFhbQNsOYtMBLggIM9KhnMzlIvzFL0OPh8SK42WoKQHLNa6KvGhH3es1S+g2A1pRQIdeuywQ9pfoHSWrgw4WAj+7Q0dfuers9w8A1lZEJWL0D0ARYqMnlxi93WeOk6bgFaOQMesiZIWojnJt2cd//nPP8f7vngX83KCqL0BhMOLFKQfJVGv0mKYYU46M0M6f5CaFsRKEiqB1OJILibvV2ReX52kgyHeGqQroRwAJWEtJE4CSgzz4Tm8/9b9/NbHvsEND8yRNTdCewNE8VLB5XVWH6ft0hwvWlWIqnpzEAT0neSeWcvvfuh6/vaL95JNnEOy5RyG/R4MZpEyI1AWEYSIepuoNgmFh/lZzOwMJsuwZVa5wgiPUAq0QgqNWhbzv1rp24ieVRS+qo4d1RLCUOJ8iS8GyKkaOMEXdnf5w1vm+MADnvuKiL5QCLcGKuQ9RzltPW88VVsuoLEJW2vNo4cX+b33/BWf/sY9yF2XwORO0mGB1NAMHS5bICuGlGWBFwE6qFWpeAuL9oZhd5GsP6ge99WUcZwlaOXUcVUStCGeRNUnIEzIhyn9+VmKIqc22ULO3EZ7Swux7UK+/FDBf/7obXzgqwfZs5AhRXaMYFa2dZ4ZnnQ8kB8ZCjKlkMYTFx0EFoSib2JmbEzPwxt/5yMY58kLS2Y9pQUvwiqFsJAwrsczit7ELSvV7j0oCUlCVGsgogQrA4zQeCWROsCZYmTSrrLdjDO+e0a50fQqX0ckHjKHJiBQCpsv0rYDXnbmTl556Xn8+FkPgWpBuAmjwBjwBSRqCNqAbsGyG5nWeunGYoxBP8X1mU5GpzD8+BPGA63uabhf8f7cr3+HeeE4zrpm+TFZOkKbVxXvZQDJBL4Z8/X79vBff/+vGaaOLHNYJ5EiQKmgKkEIxyTlWbmeAipzdW4oBkPywRBvquwzWopKfLISYlUrVCCVrpqOEXr176QERYAyEdLHWJlQyDozRvHlPQf4q2/cyfvutdxtpsk0aGcIiw5JLcfHMYeHVZJLRkXNgmC0RzbimRbPs5nvSECcQEQAiSghT3FeYOMWBy18/Nsz/M2Nd/DFBw8xHEqKMsS4CEGElhFSyMqA5sclIY4gxok9Ri10ArIS3x3ie31smiJcgbIG5S3CS4RQeKlwSmOlwkqFFxqh1oA3Zi5QRmGtoiCE2gS0t3CYGl8/POA3v1nwh9+Y5ZuHS1AWmeRQdhi6kqDVxhizZNY/7g1onaeE70hAK70LxscAGPZQ9Rq62WZ3F/7ic3fz+x+9nq8+vojcfiFOxDhfWde8UDghRtpYUb5gGctFpC0o56q5S5bjh0PMoI8rhgiTIaxBuFGaXeeqUcl6vK3iilY7jgKvCpzPIB9WB+ttdHMDOmyzZ77Gh285wJ9//m4+c/8CA9uEsEkiBTWq6hNegHGWwpQYZ5cyaJVLNWvWOd18RwLiOHc3McrSkxmHVxGzHj785bv4wPW3cv+8JU8m6JcCHcWjEG2N9WJpaSOohLT8fOP/l8Q6OqaUQmoJ3kE6wPU7mH4PkaVIa6rKC8JVJm5B9XfOVVnyVzm2ViBii1TVyMJgAXqLhP0B8aAgaSSUPuFzDwz5X5/ZzXtu6bLXJghCgs4hlA5ASIxzlNbiRqtAB5gViTDXOX18xwJaydKUbmoT9yxY/uDDN/OBG27h4Y5D1KeQKoY0RYYKNDgJFoP1dqnshxRHz9FXjnBCCErtEYFERwEEIxFlGX7Yp+x3EPkA5XIC4RBaVA6mo6riag1EtGJzCl8QKIvUDnxejURpDnlB03aQ0rEQtPlGt8affesQf/DZR7h1fxfZ3rh0miXn3WVroHGy/HVOP6csoLG1bXnCwOXHHi7h/Z/5Ou/57Fd5aMGiJrZiCXD5kLimKH2GoWow8qIGQOL9sR18+QhUCUhQSDASZKAqEUmgyHHdHuWgg836YHIUFqQD6dHSswZWQFBUXubeSnQYQhxDEJDGmrJVY9H0GNgUGjFuaor7+ynvvelu3nXTo3xmXtLtdylsiZQKpTXWO9z4FrUWbiBrlFMW0HLxLG/jY7/1Z5/khjvuo6dqqKnN6NoEWmtCPGGRYkyKtQXeGxzV1A1GngTHMUosRwgBSuClx+FAecIwJAhUtdbJUhj0sGkfZ1JwJcI5wKO8R62W9KdPgFJTSJdgSom1o4riUuC1YphEFGEMzQhUgS/nIBYUkxv5x0cXeeeffY75hQWytCr2LBBYa8mLnNKWK19qndPIkoCyso8lx2PwuKPSOJcGpFCkRZVBU4sMmxfkSvGV2ZCf+sDX+etbFrlzMIma3EGjFqPKRbADvJYUcX1UB23cqrm5R+BE1cbp2O24sJcAKwVWyaqGpxdIX/2PAVtYnJVonaAbE5Bb6GXYmQ5utovsZ+AMufL0taFGjYaPSXxAaH2VhdCO9oikPCaX9dPdnEvxyuE0OFsiMoMoPcJaRDGsvpTUIoYlIpfIIqbMayyUExxym7nsj+7gf98pmDGgB11qC3toKIdSAYe6kp7tk+LoAnM5dH0VVmVxDNPFpVnFU4VWGqyjzArqSY1ymBEICc4TiKre1GpuJ2JJQFFQQxLgERSloTQl3oMxjqLIcIVBiwKkxKiErgm483HD579xDzfccj80GwRxBEpinCU3JZkpya2hGG2SPlmWz/TGBbqWjo1ig3xpcNkQmw4hLxHWIQQUNid3BcaVGEZ6RY6sfEfOu1aJtpzHR268k//51zdzyyGP3XhOVcY+S9keOOrKE1JSB9oRJGJUJtZ5aknjGOPQcp6oAz3XWTaFk9V6xFVFsLTWCOHQGoJQoBjifUGOYIDijgMD3vOJG/nrz9/KbFYniiK01njvKcuS0hi8tSednn3HSLG077pcRIHS1WsVBQxzGA4hHaCKjKh0GJdRYijF2GFVVpMdD+pZYKTKjebRecvf3TXPH3xlL598uOCA0+hYI+UiEo/PBrhhB+0dgQfpLM6CpzLiHE9EJ7sDP9dZEtA4qFNKCHRA1U3dqDyvASxRvUnXh3z+rv184HPf5FM3P8ShrkRuvwBjHaWxlMZinccjQGmk1ih1Cjvhy/Z8jte8rBocK6Kx4AOlqr93JZQF5BkyTZHDfpU1R47Cv5Vc8oLwrkoEv+bJusSbtpNPns1H7u/zG5+4jfd/Yz8PdgDVAAKcgyJNIR2CMwRKEWpVVbM7DqcyhXmusySglTcf6yzWWUpbBa4VukafgK/ef5B3ffLLfOJb9zOsbSQ842ycqOp5GutwDoRQKKlRUiNQx7WyfceMbQ7jujdjcVUZgfEapNboQFfRqoAsC/ywj+11iLCEwhAKMXIjGonaObxZ/ZlPT8ZUzRO4IUYGFK3N3L0o+cMv3su7vvwIX5sJmTcJrjZFfXIzSDVa/1XKKcwTi+V4I9M6FcdY4byH0pQ4B0oGBComDussqIi//drD/P5Hv8w3H+9RtLYTtCexMod0ZrTnIqrOPBotnADrLeYUdsJXmq1XtuVrFS/FkbXP6DErwCmP0IIgUAQKlDP4IqUc9lDpAJ3naOOQtgq1QEikEIgTeEKsJbT35MMeedFB12KYmmamrPPRexb4P194hBse6bE7h54UECXYsqTMB5TWIfSRcJSVIlr6/tc5LksCMjajKDPyYoj3nkAHgMRaQbcz4JPf6PDev7+Fb903i586m2jjGfTLDJvOAZ3K7OqrPR1nK+9V7wV4OXaMfvKcSERA6Qyltzg8TjgEDukdwhqkMdjFRVy3hx2mYCzSSbQMCLQmfhY4Wx7OFDasEygww8NAipqeYpY6/3j3If7maw/xiZtnuH8BuoANIox1GFsg5fEFdNQNbJ3jcmQEEhbrCpwzlX8akOeWxx7by+133M0ffeDveWgmJ9pxMb6+gf7cIt4Z2q0AfHfUsf2oaNbIy0CIKgfC6eygy0QkxDIRVSalkZfDeBPRIrxDCU+x2KHo9THDDF+6aoo3iinSUbD8FdYm4UasbuGFRNsUskVs1scrTTixkc/e/iCf/Mq3uf5bD7BvvkCFIVEtBhzOHx2wt86psySgw6KOiRKSpEso9iK688hA8YFbM374vbdxfzRBPrERV+T4xQOo0CCloD/QBHLXUoFdqGqFVj5o9kg5eyefsFV7TyduVdyQGC2GqlbtJVVroDhuVRtWtkSInDJbwGhNMLmJPJigXgO3uIdWuocrJixXTEimZMkwL+n2ffUaEoQSlWGhKPC5wXtFsApiicafeowXYJc1aeaRtosVDqcSJA2k1VhbkjHEX3gpt3bhNz53P7/+yUf4+wdhwUckqqTWe5DCRAQ6REuNLPtQLuJJGeLY/xRVx1g+sq0sgbnq2lE97whLAtoB+G6XXt+B2kI3nuK/vueL/NlnPkN41pnLnlKxau5Uoionnw2GyKhOVJvE6yYkU8RBjM+H0J2hX0wzOdHm37zqXD7zziv5k++b5rpwL77fg8kLCYKIQMdVLJMMIKwR1GqEWlGW2cpXXXOUh4ZMnHEBcttZfPKOu/i1j3yKj96zQEe3oXERTTWHzxcxNsVGLcpggmEWEhjYJp68M9Tx+sv42PEeWyscmcJlJUkuSBo7uadT53c+dSt/+qVb6E5uYiat7kDej+p5jlj6ApYde8rw4xGOI/cAIZCjn+Uo9ifPPM6EqKCFyQv8wkEm5IDLLtrGf33Hm/jlf/Z8atkDXKz38u//2fP56VdcAofvxRUFJs9wpQMRIFSIQ1CaAl9ULjJrmTOmdrB4uEOeGTj/Eh4WLf7jBz/Pb3zwHh4aAvEQoVIyV1KOvEFqkSJwEoon9lJ4oseOy7NoqnhEQKZHODXFQ334k3+4g9/71DfoRFNs2nkR9Ko58pgT/fyk8OKJ29LfjYZRIVBUC1wlJIFSBDIAF4CV2EFGMXOAnQ3Hv3jFVXzgbZfxg5e2q3OZjZThDs7ZPs1bL4r4T1cVbAs8STGAdIhEIFDYPMfnGWGwfNBem8wOZiEJoTVRhX8HU3TEJB++7yA//77bufkRz4yfIohaREDsLMJVPcTm1fV/su4+x1tjrfx9rbEkoJ62POrgf/7tN/nzz9/GoL6Z+vQ29tz1IM3pXXAc4SyNQKflS1g5y1zR/BHxQLUnKqlGICEEeVEQaV119qxPy3V53q42b3nF1fzcD7+Ic9s9kvQwvRx6jUmGzTaDFC6ecPzyq8/mh645l8unYmrpIiLtVQ6oQoFShOFpNII8Q2TFYZKGpGlKeGgPzKVs2XYug6mNfOnxR/hPn5zl724vmS9B+ByKWTCzlLqg3wqPstCt7AenwsrnnP7+88ywJKCZeps///y3+dg378MGLUSjRa1Zh26XqDj6w678Mp4uxuJRI+Ew+gASkFGAKQa4zn4m7Qzffclm/u2PvI63veEazohgcQC6NUUt1sQOVOqYTCBOahRE/Ph1Dd5w0TTnNh1x0cOXQ4SWoBVpefJ9rFXPhknSxVmGhw4zqUM2hwmDTpduaeDMM7lhj+ZPb3iEP/vcbu45lEHcgijGIitjzbJOv1IAz2WWBLRnYPmbT38Zn2wk2rIT15+llD2iHdPMdmePftZTIpwlKRy3LR95lj+D0XQOLSmzDmdPBfzwiy7mx159Jd99+UY2hSl+uBfZ2kTfC7zLCUROI7Ko0U68C+qcIxzff/kWfvC7LuWCLZPoURiA0hF2lWeMOSU6liRsU5ucIo8DFpQjl7Jy4Rh42BBx3+Iif3bzQ/ze1w/wD/s0h2kg0DTt4Jh9ou/0Jno84a38fS2yJKBHd8+wd88CtWSCoiggkSz2DpPns+ipqkbnMR/0GRqChR9ZtEfikYAbDogjxWtfcg2/8OMv5cUXbsR29uH7hwkSSeC7hKIEGWFERC+3lKZE+ZyWHsDCbs6dCvnBV2zjmkvOIQkqp9ogiVG1tV+jdMI2KYfQczCcaFC0ahTeQeZouJhabQG9uc4h1eIv7pjjdz/7INff2aMcFOhlrk4rr/XK30+Vf+rzVhtqYmLi1wH2bP1RHltcIJ4WVWXorqAZbiUfZjjVB58AYmQMq9xgELI6tnK98k9pvjwy4Iz3kKSoigxrhcWhwgAvBNYaQBIGURVP1xvy+vpefv2tr+VtLz+HtrH4rE/SmIRoikFRIxYh0qullwi1RgiJ8xLvNbI2jTXQFnD1tpAz6wWH9zzM44e7uHAKRIO6GFJ3cxQux4kWyCaBz9mc7Wegmys/0VHtqe4u/iQtlwavPQKHKAtEWVbvTQpKHKoxRWE1hAk+jtk33+Puhw8xl03S3DzBxpom0Apcgc0GBIFESCi9wEiFGmWiPeo9jUQihKDr4Yt3W3ZbUIklGSY4HZAGGVEZ4cXpcld5qljx2b70blguoH3TV2G0JPOWPC3xBrRS+EjhlAf75PcCnhBbmXyEqFrlLS1w1mKLklZkyWbm8SIh2XouXgRku+9hg1jgdZdv5Sd/4DVcdfEZ1FTlph/q6hyl8WR5QTQaURhd0DHjn70xCJuitKAWCDZvnaBWn2TY63Joz25Mq0GZZ2AViWrhRIgrMhwlRT3CuSc2NDzVAjoZR1/+Y5HDAmEdoU5I4hrSWfr9RQ7Oz3DXng7P3zEBQhEGAVGkQUBRlKSFR4YafRwBjRFCMHSez9xneNQ44rBE5TFWa6xM0S6ophWrmpMIaGbzVdQn22SFrcJB0UjvaDRqZEVeRZIesz17+ppGV9GmnpGIFH7ZBQndgDJuQTiB6We4hcOctUHwky87j1/43qu48MyN1BQo66FMUYHGeSiNI0xiJNUFPp54AJR0CEoouggMDa3ZublBQ0I8mOXO3hBUDeOaFKknMTlJDHmgsaby/n4inunucbL31zCgLUjjoHCUzpJ6w6wZ8tCgw8w9DzO19Uy2btCY3OHzlChJiMKQogQt3FHf73htMz72rBfQ2a99C4cWO5Q+QtXbeG8IcARKUOYWL5/azC4NneCcxxgLnko8QoDUyCjCoqnFTcq0A/OPcsX2mHd+3wv40ddeyeYauEIQCBA2R0sPUlEaCzpCq2qdxEg0xxWSUggt8dZSDLtI76kHITunWlywbYp98zmDQtJPBYQBUc2ifUZqNYhJYHV7K5xMQErLKvKrcORZjvcCmdTw9ToEEXsPCh7Y12G+Z9i6aYpN7RhZZNi0TxxqrDv2BrWcoedZKaAlI8IbvusihvsfhaykUWsDHh1K0jRF+WBZlrGnplkc3jukFCg9SkVlKt82bwyGCfqHD7OjPMjPXLeZ3/qRa3jrdWdRA+b6vqpwICwy0BBEICRhGKKP+J4ec4GX/971koIIkkmiqe3IuAEe2qHk8p0b+PVXP59XbmlCOIQpiW0rFvIuDHLayZG0UmuVAQVpAC7RqCionGx9UJVX70Nv27V8cybgD79wH392/b3cOeNJZYwWDnwfv2yj9dlgXTtVlgT04nNbbFY5Os+xaQ62WnRmxqLC+tHPegrI7BAjSlQIcawJFWBySAf4bACze7loU8LbX3U5v/i9z+O689vEvs+wMORBjbhWq+4SQpHn5cjIoVBKYApzwjsjIyGFopJyicQQ4GWM8xJnqxHxsg3wY991Jm++bIq2Pcxw4TAirNNIEpjfe0zHWdlWPVKCAiMdpXKUGKwtUFYCCWRD5BlnMl/byp/d+AD//SM3cePjQwa1aZD1JfE810S0NIX7v3/h7SzMG2aGITPDKs2sCBzWK1QwgXWDlc89rXjpgWoE0kribIktCkKtmWw0eMmWkh99zdX8yGsuZmurhu338RbCuE6gQTiJkIo8N5ReEgajRb33aAWMPBZWMj4WCIFmnKzHY53Ay3FKNYv3Q86YijlzIqSc6zOzoPDhFEZBv7sH4pPcZI7z2k8nJ3v1WNexpa3C4bFVCjEJWitqcYIxM7hyCCrA1jdwcOC468HHWMw8W86apmnKo0b0sXDGx571U7hNseeNr30pZ27aiBumiEBRuBK0pjzyZ08ZMlLVHRBDUeaYsiCUgul2izO2buE/v/m7+P6rz6AmIEeThtMUQRNvCmTaIzMOA+goIElCHFAUhrKoChWflKIPtiSSjkgLpIJAilHRB89iMEC5QzxvSvFLL76SN15yLXYoSfvzqB2rv/rDyahnjrig6hL1GBoxKEeZ9+n35pgcPswG3SNuJBBP0fGT3DKn+fAt+/jdjz/0nBhtjsfSCPTOd7yDMzY2OXtrhBseZN/jj5ObEBG3cbLyhNZhhMsyMCVRrVHt0BcCGhvBPPEIFYViFB8EgYxxIgI0RA1oTRMO78Nbiw5aSB9TzsywoVzgR6/byf/vX17N+RvqxHKUKNF7AiXQUiCEROkQPUpUKgE12lzVSi7ljD7e6DOmMiKEVa4AIao4wKW1kwAUOQ3yoSYKCiZbhl3bMiK5wN5ezuK8JNnQwuQDGA6InCMOQrwOcTqAIELa0b7L+DWpRsfVQioMRo3eT+mgsFWglaz8AU00zdBKymEXYRcIZIaOBDNWcPOBRXqH6/RpsHWTpqGHSDlPWS4w0JpUxPTLnM88JnnEWGJf0khreC8YRH1o1FCFH30rq7UdzTFWuJ/9yXcgg5jWZJ321GayzPDYngNkg4yg2cbNHSKoxTTqtSpjjzMo73EYyAcnTR9r0wwfJIQ6xNsSLRxJALbo4g/uxjanUWEb0+lgD+/j6nM288s/8jre9JILabuUaDwlOwFjgaw0FJwuUixa55i8h7cl7doU55y1mdAkzOx+iAOzZVUtoTmNkSF5keNsiZKOUJpx/bA1ixKiGmXwVZJLATAqgoZgZuYgBxZnGJQ57VadiaRJqBNCIwidR4Yxn33QshdPK/bILCDDk4k+opDop2GWczo5RkA/94v/hrIsqWnFtqmYDVMbyIuSA3Md+nMLtM84g0GvRz5MCYIQ7xyuHBJKR6KgWKr6ewJEAFKhdYASApOl5N05ElImWgnDYANuOKApcl5x0TZ+4rXP443XbmVDkBO7Pv4Uo0KfKgFZesQCwkCTDzJqQUhLBlw4Wee8muQLByzeCjIHTkVV1h9bEhcDWnbIUJ7a+1+9iCpfrQeBx4tKSN5XZTYWdcCeTpfdhw7TTS0TExvY1EjQXiN7PXKp+dgti+zOC6LEYlKNDTUqtISZQqg1LqCfeec7q3zsxZBQerZN1di+fQfGeB7ftxeRTJJ2uiBDCBLKLMdZTxzHSCwF1WbiiVooBFpInFcUHjwSoTVRGCGlJp2fY3PN8QPXns/Pv/ElvOy8NmHWh2EPEccgoyVxPFFj2Wh0OgkxSCSCiDBqUOYGX5Q0Y8H5Z0wia1vJF+d49OB+UBG0p0EoRJYhC0Ox1kvVH2X+lwgPDldtfiOgNonVNeZ6hkf2zjIz2yeJGmxpJ0S1iBLJx7/d41FTECYGU8TIeo04tNQGknKNpaU4RkBv+6l3koQSoUoohiitmGwEtNrTbGw3+OK37gIZUJ/ciFEJLjUQxtggIOv1UUF4jGiWN5kuEuiQUoiqIF3coDExRVoYhvsOccXUkB9+0eX86Gufz0VTiogcKQREDTzJKRmxnqrRBwAj8UMwLsIHGh+E+EBh7RAdOC7dHlMXjnSYMpeXZAYgxKkAIyIYry/WLCP/R6imblDVsUVUC8/5AqESdNSmP7Tc99jj7N7/OC5UTJ6xgZoWfGVPk4NeoIMCZ0JEEoFLCRahTJ6i6/YUcYyAfu4X31mlfy3TKjGH9wgZ0EoCzt4+TVrA4twBDh04BEkTObGhSr6RpRDqqrM/Aa1A0uunOCS61cZlA4rHH6IZwguuupj/8PqLed3VF7KzHSDtgDLL0VGdUiiMrMzMK0eble0pxUhEoBFCUPpRti4hESogxdHMu5y1ZZKNU23684vs33+AvDQQJXgdVm5CaxkxuhWOv+dlRbuEkNQJKPoDnFe0pzZhhWTPgX08NDvDvtRSqzX45v6QeRfhi0WwCSYMMEWHWhZSxk/x9TvNHCOgn33nO8mKlCwv8DpERxHgCClo6ZJrLtuF7w94bO8+UuupNZrkpoB8SFSL8KZKFXWiVotbDDIDUpHEIAeHaJSH+eGrd/Erb30p1+2aphErpHCUpgSpEDJACoFabm9/hrAjg5RQUGRDyjQljkIkEkWAGewjqSecMdWiHdQgy+jlQ3oUOF3VcF3bjIo4j3/1vspsOirqPN2M6Q97lYU2SYgbdXInWOik3LVnjkHvAA93z6TUCpEuoHyNMpRkeYcp3SZfYwnKjxHQj7/9XxHGEUFUR+oEJzwKh6ZEu4xmoLnikrMIalPc8cBDzM4uUGvXCUJB1ltAqmjlaxxFP9Mk7UmssBSHH+esNvzM66/mp157Bee1SwYdi1IBQglKFF54QiWQ3iHLAk4lv/YJ8E/gKXyq9IXFYQgoCAJHFEikE0inKPuGoK2xxhGJhLM2xUxv2MbBziKPd2fJtUO4Nb4GGo0+YmxtHdfoBIRU9PqHCGoRKE3W7ZINMuKkiY7blDkcmrubovZ8mhMBYZkRyBrDUJBl82yIJsnWQh3OZYwFJHbt2uUB7rzzzpV/cxRlukDSnMDYgI984Wb+8vpb+NZhT6e2HeqbwRxCSk9gM1xZZbGRQYLRSZW4vnUezD1CM9/Ly85u8COvuJxXXnMJifCUJiVw1Spy5bRs3PGfrACeauZSSy0xhK6PKgqIptg9jPiTr+zm3Z//OvnUWShbJ3QxYWiwYp6hyzB+CuRWEAfBC4R1KCRSShwCI3yVCOUp36k/2flHWZGEOBIVPHLdkR7wpoobFg7hfJVc01WVw4XzOK0569wLQYVYUZWgNMYQhRqT54jTmXzzKUCMzPhj/P/7Alg+M1rZaVe2pDnBcDAky3Je/pKr+Vdv/mc87/xthMUspPvABzgbkcsWZbyFMt5CLprYQoNVcM/XOasu+FevehE/8f3fw4svu4SWEMgyx/TTY15vZVvt1AKFRmOdonAanGCqDi++9Ex+/HXfhevMEkoQUcJC7ulmHq1jWqGgZo4NmV+LPBe9EY54Irzzncd02uXNC9A6IooCggC2bm2wecM2hB3SPbSb1NexxoGso5NpVNDAW9C+pKbh2g2O73neObzxRZfwgrMTWkogbIl0njhMQFXeAlJW/68V4YwJAISsknB4TSBiAgmbWoLzdk7QNwlpN2P/3ACiFtQamDzHpz3a2jGQGhAI75cyDVUV/BhNn1a+4jOEWCrOCePpMQDVGhhRlez0vvKuXzokJZNTG0Aq/MgzxDk38nu0iGVFkVcjx/TFL/0pfCcC6qY5cViZqvudHnEQsXNTxFnbNhNk83QPLeK786SLC9hBDwaLNLIFdkUlF0+F/MpbXswLLtzMmZOKxBZQDqrkvGEIKjjqtcYiWlMYB1JgpULpoDJ8eEiEYVIWXHXeNHlnwGMHZ+gSImpT4DXWGDSeXD97BFTNNisjg/ejGrhKPSsFtLQGuvfee4/+gxUUo/meyTKENUS1BCsUOTDTWWTmkOfBvYd54MAi3UKgtGZTK+SSnZu4cNcmtk2BwoFNwRZIKZE6xhCQOU/jKQ7Ye8opDFZrSln19chRxTOZLk6kyKjN7h586Nuz/M0tM9zXS9DNLUhlKLqHIbJreg3kXVm9xWVrIHxVgFo4jw+CZ+Ua6JQFVFLdZfXSfpqjLAvQAik1yirSzLAwKCh8lX8g0TDViNDKM/BDQq0IAOtLPBJEhCWgwFOl5FjDWIdXknx0owndyFIlUxA5dAbQnuSwr/PBmw/xwa8d4rZDHhPVoB6CW3jWCcg7U/nKOQ9h+KwU0CmPmybP0FqOfJYk1jp0GKCkorQleZkRxYJtm2LO3BSwa6Nm05RGyJI0HyKMRzoJXuFKRZl7vPUoIDqOeJYHZK2JhamoEhAKlgXaComXCUPRgnA7WMcm2eVfXbuZn3zRLq6dgqBYALe6w8FPhZXXak1cs9PAkoBWdtiVLYn00pCMAKVDnFcYJFqFpLpGrgIcAmcyvM2r5Ow6pIgaxLqBIgKrkVYT+pDAK7Qb3a2PcxGWH1vtjFI5VGmjfIEtcxCQI1lAs6glvVJDsUibBb7n0gl+7LVXct05m6CzZ+Xp1lkjnPIU7mQY88Tpb8ciGBsJ5CpfNJ5uBoVD2BLKlDAMUHGdxRK+cvtuvnbLXfzO7YKpnRdRiJh+0Ue2HJIhptNDOI2PWtWJjh2soZo5PcVUL+BHRgPhRtdzdG9zvprCeWy17+PMqOhZZVQQcY3tZ5xF3GiSlq6qoaslpsjBWaR+4o34Z5rx5x3jfuNq+E6mcCdjpdXuidpzEaVG1fC0Al9ZrGoBPP+Ss3jDq17Ci1+4i7L/CEUxR73dwC0OMD3DxskzaAVthFzmBeCXtXWeUU6bgMajyqm056KItIIgUIRJrVqQlhkhMJ3AZWdP8NPffyn//EVnUS8PMdj7ADKpk9Q30F20uDwhQKK9QDkQ1i81aWGNuZE9qzhtAlo5yqxsy8XzXBQQ40mQEKggAFvg8iGiKNBZxmsnBD/7snP5/ku30WRAYIc4PLmx9AjRQi6FqkuovOW9X/p9nWeG9e/+acKYqrMDlad5lKDCgFBDoj3NfJ7zbcEvfPcl/Pz3vYR6uo/84H2oqRiawVFryOWtMrIsf6V1nk7WBfQ0EekqMX8VRlPlr6uaRGoN3ZRYwIVN+MHntfnxl57PzimHXdgNvkPpLMY5HKOCfVLgRVVo2a4r6BljXUBPEwJXJeIQEoei9JKi9GSFZ5g7aG6AOERkju2y4KdfdSHvePklnBeXtIaLGO8weKwEr2TVtMArgX/KN1nXORGnTUAr941Wtuc8psQ7gxiVfBUCnFRVeRAknThiocghKGhGBZtsh9ddtIu3vviF7OBI/I2nWkdVvmPPzbXkauK0CWjl3Hxle86jI4TUCEBVGfGIFTRjTSsJaFMymUhK78hLRajaXNjQvO0Cz5++aYJNCwlN3QCd4tx+ErFIK+9DnkG7TSQkkZBLGVbHF3bljezEzT5hw49SWI3+3lE1Kzx2tEf0RBz7eqPzuPH/VQW8Z6qdjFJpTBhTBhFZ5XsPp1NA6zxJXDWyBGFMEEQIUaWrbrVabN2+ld/+6Qu5wO2Hw3PU2+czFFvp+BpJFKNn92KMxRiLtW7UKavTrt/ATo2Vwl7ZlElRxQBlUrTPl563LqDVgvdLl0NKiR8pIIoU01Ntvu98+NXXXcj3bduMfXQelypIJilMyYQpsdZibeVqNb7oY9b18+RRziBtgbIFWhxJELMuoNWC1FWqn1HyEeccxhrcKChtmN/P667YyL959ZW8ZMLB4ACYBawKCCZ2POE+2/oS9MnjdYSVGodCLAu9WRfQamFF1h6lqpAQYwxZMcRGW+hnc1x7nuQ3/+Xz+L5zDRSPQQAHSNC6qiWrlETKIyJaORqtc3xWTtlWtjJskomI3Anssmu1LqBVhDUOZ490diUFQniE8AxoM/QCfIdLzij4hdeeww9ftoW6WYTZx48afap21KnXeZKUsgo6xltq4kgGoXUBrSKq2rBHer6nEo/WGjE3pF2boitKDs/t44U7tvCLL3k+b9rVZFe7N1oDVQaEdSPCd87KEWdlc2WJtkPaKmNn7chNbl1AqwhZOSaMcBRFhjHV3tH2oIbLCkzYQE9touzlXDkpeeerruIHL50aWeCONiSMWdfPk0eaAZFLmQwcO5rrU7jVhxztiy51dkkc1kmiBgERruGIQs2EC2n7BJ0oCl9wbjvjV199Kf/zxWdxVa2D7z9KYzqg4VPqi3PUCosO6mD6YDMEJUr6qvBy5RoxiqAVT9iEcUjrl9rYGxzjwHqEAW88GHCm+h0jYRQWhHVV2LsdhXh7D86jfJU2XDj/jLaGhbAEV2hKk+B0HZ9EZGFGxx6iOe+Q28/g6w/P8Jar20ddtnXWAMvDQZRSo9iiI+27r2ryz689jyvPPIfugweR0zsRm7cy6MzQ8ilSJmgVoUVQORZZcM5XQUXrvYBFhuQyQ+uChs5p+IyGKWm7kCnVxramOPDoPs6dEkwuqySx/tWtYZaL6pypWX70uu289ZIL2bVhC52ZWXqL8+y86jJm9zyKIlpq0qnKWGErD4NqJHpuYxINkUCrFO16yKyLHwzxGSibMEhADg/yxqs2srN25HnrAlqjeO+X1jvOOUr6TIuMf3VpyP944yVw8DYmz93A4/fezeSOS6AEaUF4gfBVfZ/xVMqtO6MS6QaCAO+rfHWld6RCkKqQYdSg0+9w7Y4mb7x8M3XWPRHWHGOhLLcMMRISwByToBTtCF7Wzvj6H/wow7s+SzAxQa6nwJRYU4Irq8QnYuTRKoBlpvPnKqovIdV4m+DjFr7ZJq/FpKEgDR1nhLP8yAvO59y6xJXdpeetC2iNsNLTYPl6SEqJYoq08KBT2tM5Z/QP8f5f/nHOVSmqd4AoNASywLsC50qEtJWzHWoUYPTcJswd0lRpyFxQIwdM3kGn+2nme/mx503w+p2gM8NCesT5dF1Aa5jlQmp4UHFIXxmIFbrMeNXWBr/zYy/hmvgg7ZYiih1SpHiXgXdIOUqjuh4WQRBkyLDEKENmc0TWZ4vt8uIpy1vPjnnr+YqNDmwe4lubl563LqA1zngKlwz7eKAfNLlnaGhM76Bm4KIA/tvbXk6rGVCLBQKDtXmVdgoqH7z1boBRPYxMycgpy5zEZVw8GfNDl+ziF1+4iW3lXhgMcZ6jKhkt5YW7++67qzvSOmue5euj8c93Hir426/dxV/fsZ/DcgO0t4F1qHSRpsnI6lNkwx4UOUQBIo6q4D3vq93dspq2SD86/yiOpyrG4JHY6rio9nrEOI5olE9NxjW2bT+TqNEkLf3IFK/wZYHwDieeXGrfuh9QiIhMRAyRWAdSGGrKEio4rBrElDRsRuJytHUUVpP5iMIHHPSClky5MBlw3YaSF2+NuHJLwvamBukxVNmUxl4dl1xyCSwX0E033US7fWSDaJ21y/EElCvFrXtKPnbro3zmvhke6UkIamgkFAUuECilUCNH48IYbFlU7hGBrvaLVrGA8L7yklYSJAgMyhsUBQLLfOqoixo1V6fMPD2T0w0L8ilwbc1LB312TsVcubXFFVsjzq5DWzqUKXBlgYqOCKjX6/HCF74Qlo/d+/btW/521nmWERm4dkfAO15yHj968Rlc5nvIgwcoC0mw6WxsZhAGpFXYAlzukT4kICQ0q79yRi4alE7jyxKd94mKHrIcUBYpaVZwmRU0reCAkjw4EXNoS5vahgaXK8OrerP80mWSn7005AfP0zy/DRu0QUmHCSNcfZQVdsRyrSwJ6Mmm9l1ndZNli4RlyQUt+OHn7+SHnncWF0yFUA4Y5iVxM0aEitRaitLgdUBYqxEEGmtXf4VxLSTSWTAGVxqsk5SyRhZsYBBv4lEbsFDX2AmDDA4xkT/Id8lD/Mq5m/nQq8/jNWe3uGKDZoNMCV0Hl3bI0wHgjkkAu1wrSwK6+eablw6u8+wjbiQYO8AOZtg5ZfnnrzqXt7z++ezcrGH3LXjpcBpIQmjUIInIlGcoDHZZBOZqRbs+oXKEoULXGth4gjyYJFUNUlnj4SRgz8weph+9lZ8NDvGhl27nvW86k9dfISkiMD4Eq8GH4AKk0gQSRJkibVXzd8xyrSytgRqNBt/4xjfWDQnPAo63BrJKEFJCPgShyMMWj3j44Nfm+bsbv8XDhz2ENURjAhEllZUuT0EU6FBhymoat1rXQNIXCKXxKsR5SVlaitxgjcU5w6b+LK+4ZBv//No2V2+GGl0KMyRF43QNbWrgQHiLxqGkI6gKH4FwGB8jRoksr7vuOvr9Piwv8VgUBdu2bePiiy9e+d7WeRZQpBAGAWgJ0iGFoC4UO9oJV22Z5O794ApDNswQqMpLweZASawFpasEtLRjNJrXjH8XSwcq96Dq91FRLkDogGZrAh1GVTXM0f4VziLw+CNxHP8kjHaUSmF8gC0tocnYrgdc2cx54QbD777uHF5zUcz2qcoM3WVIWhoiGdCWAUoGaFm9ZedBIhFCIZQCFM5XBoSPfexjfOYzn1l63SUBMVocveUtb1l6cJ1nD5FUYKnqkWqHwBIawwYtuWBjncXGZkw/4PDsLN4K6kmMFBafD/D5ABfUYRULqIgUloASRehhRw1evCPhzVds4Ief1yaaWECHhsBoGkZStwkN3UTqhAE5cZaipCdQklBVpVfwEms8rvSgKgH92q/9GnNzc0uve5SA5ubmaDQaXHnllUt/sM7a40hY9xFPBV/dSPFSYp3COoXxcpTXzfLiM4bUXcFCN+FgGdDVBSYqiMKYmpxm02AP+JJMSZAxOF2dX5Wo0OCNOiInP6obtJQ7QCCDgMnJDaggZJDmgKjqJAmBd5ZGMaSrLAOhCMsYKWsMkwjjBY3UYsMmxjscQ0QwxMsM6w06qNFo1hl0A1ppnyvUHD+00/Jz17b5wYsjzmrnRGWXSE4Q+hAlRJWYT4GQVbL+iBChY5BBtec1+hhCglQSGVTuUu9///v5xCc+sfQ9s3wNtJwPf/jD61O5Zxnji+xGlbNXRq1GxpAlNb74uOGPP3Mn19+/gK1tRtdrmKzDVNEhj2MGOhoFyjmkNTiXgs+QujU6n8M7h3CjNZGv9u11rcaOneegkxqdQY5SmjgOwZQ4U9KpaXZlEUopHo9L8jRj63xBpATzG0NseRhZBtRp0winsRJm85zDRRfDkDdPSy7esYkXnBNx3gQ0LYhiiFSOII7Q/ogpfrwZOv7/VLjnnnt405vetPLw0SPQmNtvv53Xv/71xHG88qF11jriiJGBZaOVcjE66LOjnbNxMoBhjX0HDcPMQDMgzRRlmIDSYHOEKQmFxIWa/6+9s+eN4ggD8DMzO/t1t3f2mbONTCBCJMLBcuWKKAUfRYrkDyQSikQVCTsVDX8lRagpkOitNMgdBRESpIgihWDjQIx9572P/ZpJsTY+W7YDoQlon2a1muK00jw37777zrwISflfzk7YVrZeeX0PKNclaoyhtEtWlHuQlJLYosCaglrYYssO2Rx0qPf7tJVENl2GjoXukDAdoMMJ+tEEqxbWNrcI0w0uTzt8OzvJtQuSizOaC2OKhsjxZBkaFk6AUQ76wDOPXv+NTqfD4uLivtBtl0MF2tjY4OHDh1y5cqWS6ANkV6DRUM8qSW/7JaGK+eTEBB9Ptel2Yv7YeMUwKYAAAq8Mf/IElWUoqRBaY7SLyHcrxA4XSGpNPWq+Fmi3ihxjEFiSrZh+zeLXXdpGQyFYU5K+X6OlW/T8Nn/1HTY7rwhVhy9Ow3dzNa6fc/lqKmPyhKAuE+j+jRjGIAXK85HKwQLOfxSo0+lw48YNHj16dHAIjhIIYG1tjfv37zM/P0+73T44XPEeY63dJ48QghcqI/THcYsmpEOmooQzH/mo3PL8t3U6VpaNWJXFEWVXPFMYsp1drfuEOXgPCMehXm8iHE1uynPvpBQIa3CUJGkaTsYWb2BYizTbYY1WGiL6Dr/Lgm7aY8JL+XoSls76fH+uzqVTHmPNgm2VkPYLBBLHC8H1yk+cpkylC2mRI2e5valAjx8/ZnFx8Uh5OE4gdlaiO3fuVImFD5RRgQYCXBQqEwy2urh+zGTT41S7TVvV+WX1KVnSpciGSB3guQHCSgwFVhmE2Z2MhwvkBgG1WgPpaHJj9743mvKAkxoZOYqe1QxTSzHIIRsQEDNOzJdjL/nms4jrC+NcPK2IdJ80TRnoBpkOMSikW8dxPITUZQ2fBSEMSgrsW74D3b59m6WlpUPDtlGOFWiXlZUVlpeX0Vpz/vz5Y3+44v1gdBIJIQhQiAKyLEWHHspvIghohJq5sw3iVJCnMc/jPoUM0G6TslI7w3cteX68QGEUUas1EMohK8oV0BgLpkA7kuTPF8TTLfRUg1bsIdaf4bjrXPpUc3PuJD/MTTLf1jjugG2ZkDkuyouoAWEC2pc4QlBkGbawSKVBKZAKYxl5RztaIGMMd+/e5datW9y7d2/f2FEcmoU7jnq9ztWrV1lYWGB2dpaZmRmiKKoqGP7n7E3nveoEdgVCIBJAxyBTchoU1iHpl5tWw2CTF4zz48/P+GnlV9aTCOFPYId9RL6J7xuSIjw2C9eanmZsfBK0Sy8pEEJirUFZQ+BpoqkmW097rL7qYRuKz8+Oc+2M5PLJnHajRzfVBG5YZqANiAJQOYhtMDHYaGeHrQvCARwKAdlO4wt/pIVJKa8hjmNWV1d58uQJDx48YHl5+XWFwZvy1gJVVFTsUS0bFRXvQCVQRcU78A8hRQVbl+/xqwAAAABJRU5ErkJggg==;" parent="1" vertex="1">
          <mxGeometry x="-120" y="330" width="54.17" height="50" as="geometry" />
        </mxCell>
        <mxCell id="SP_JeRSVCv52ay304UxJ-8" style="edgeStyle=orthogonalEdgeStyle;rounded=0;orthogonalLoop=1;jettySize=auto;html=1;" parent="1" source="SP_JeRSVCv52ay304UxJ-5" target="SP_JeRSVCv52ay304UxJ-7" edge="1">
          <mxGeometry relative="1" as="geometry">
            <Array as="points">
              <mxPoint x="60" y="190" />
            </Array>
          </mxGeometry>
        </mxCell>
        <mxCell id="SP_JeRSVCv52ay304UxJ-5" value="&lt;b&gt;Staging/Temp Area&lt;/b&gt;" style="ellipse;whiteSpace=wrap;html=1;fillColor=#f8cecc;strokeColor=#b85450;" parent="1" vertex="1">
          <mxGeometry y="200" width="120" height="80" as="geometry" />
        </mxCell>
        <mxCell id="SP_JeRSVCv52ay304UxJ-6" style="edgeStyle=orthogonalEdgeStyle;rounded=0;orthogonalLoop=1;jettySize=auto;html=1;entryX=0.03;entryY=0.592;entryDx=0;entryDy=0;entryPerimeter=0;" parent="1" source="SP_JeRSVCv52ay304UxJ-4" target="SP_JeRSVCv52ay304UxJ-5" edge="1">
          <mxGeometry relative="1" as="geometry">
            <Array as="points">
              <mxPoint x="-100" y="247" />
            </Array>
          </mxGeometry>
        </mxCell>
        <mxCell id="SP_JeRSVCv52ay304UxJ-9" style="edgeStyle=orthogonalEdgeStyle;rounded=0;orthogonalLoop=1;jettySize=auto;html=1;entryX=0;entryY=0.5;entryDx=0;entryDy=0;" parent="1" source="SP_JeRSVCv52ay304UxJ-7" target="SP_JeRSVCv52ay304UxJ-1" edge="1">
          <mxGeometry relative="1" as="geometry">
            <Array as="points">
              <mxPoint x="200" y="70" />
            </Array>
          </mxGeometry>
        </mxCell>
        <mxCell id="SP_JeRSVCv52ay304UxJ-7" value="&lt;b&gt;local repo&lt;/b&gt;" style="ellipse;whiteSpace=wrap;html=1;fillColor=#dae8fc;strokeColor=#6c8ebf;" parent="1" vertex="1">
          <mxGeometry x="150" y="150" width="120" height="80" as="geometry" />
        </mxCell>
        <mxCell id="SP_JeRSVCv52ay304UxJ-10" value="" style="sketch=0;aspect=fixed;pointerEvents=1;shadow=0;dashed=0;html=1;strokeColor=none;labelPosition=center;verticalLabelPosition=bottom;verticalAlign=top;align=center;fillColor=#00188D;shape=mxgraph.azure.laptop" parent="1" vertex="1">
          <mxGeometry x="530" y="330" width="216.67" height="130" as="geometry" />
        </mxCell>
        <mxCell id="SP_JeRSVCv52ay304UxJ-11" style="edgeStyle=orthogonalEdgeStyle;rounded=0;orthogonalLoop=1;jettySize=auto;html=1;entryX=0.532;entryY=0.029;entryDx=0;entryDy=0;entryPerimeter=0;" parent="1" source="SP_JeRSVCv52ay304UxJ-1" target="SP_JeRSVCv52ay304UxJ-10" edge="1">
          <mxGeometry relative="1" as="geometry" />
        </mxCell>
        <mxCell id="SP_JeRSVCv52ay304UxJ-12" value="&lt;b&gt;Clone&lt;/b&gt;" style="text;html=1;align=center;verticalAlign=middle;resizable=0;points=[];autosize=1;strokeColor=none;fillColor=none;" parent="1" vertex="1">
          <mxGeometry x="500" y="78" width="60" height="30" as="geometry" />
        </mxCell>
        <mxCell id="SP_JeRSVCv52ay304UxJ-13" value="&lt;b&gt;Distribured&lt;/b&gt;" style="text;html=1;align=center;verticalAlign=middle;resizable=0;points=[];autosize=1;strokeColor=none;fillColor=none;" parent="1" vertex="1">
          <mxGeometry x="295" y="-10" width="90" height="30" as="geometry" />
        </mxCell>
        <mxCell id="SP_JeRSVCv52ay304UxJ-16" style="edgeStyle=orthogonalEdgeStyle;rounded=0;orthogonalLoop=1;jettySize=auto;html=1;entryX=0;entryY=0.25;entryDx=0;entryDy=0;" parent="1" source="SP_JeRSVCv52ay304UxJ-14" target="SP_JeRSVCv52ay304UxJ-15" edge="1">
          <mxGeometry relative="1" as="geometry">
            <Array as="points">
              <mxPoint x="98" y="535" />
            </Array>
          </mxGeometry>
        </mxCell>
        <mxCell id="SP_JeRSVCv52ay304UxJ-14" value="" style="sketch=0;aspect=fixed;pointerEvents=1;shadow=0;dashed=0;html=1;strokeColor=none;labelPosition=center;verticalLabelPosition=bottom;verticalAlign=top;align=center;fillColor=#00188D;shape=mxgraph.azure.laptop" parent="1" vertex="1">
          <mxGeometry x="-10" y="710" width="216.67" height="130" as="geometry" />
        </mxCell>
        <mxCell id="SP_JeRSVCv52ay304UxJ-15" value="&lt;b&gt;Remote Repo&lt;/b&gt;" style="rounded=1;whiteSpace=wrap;html=1;" parent="1" vertex="1">
          <mxGeometry x="305" y="520" width="120" height="60" as="geometry" />
        </mxCell>
        <mxCell id="SP_JeRSVCv52ay304UxJ-19" style="edgeStyle=orthogonalEdgeStyle;rounded=0;orthogonalLoop=1;jettySize=auto;html=1;" parent="1" source="SP_JeRSVCv52ay304UxJ-17" edge="1">
          <mxGeometry relative="1" as="geometry">
            <mxPoint x="580" y="715" as="targetPoint" />
          </mxGeometry>
        </mxCell>
        <mxCell id="SP_JeRSVCv52ay304UxJ-17" value="" style="image;sketch=0;aspect=fixed;html=1;points=[];align=center;fontSize=12;image=img/lib/mscae/Person.svg;" parent="1" vertex="1">
          <mxGeometry x="448.2" y="680" width="51.8" height="70" as="geometry" />
        </mxCell>
        <mxCell id="SP_JeRSVCv52ay304UxJ-18" value="" style="image;sketch=0;aspect=fixed;html=1;points=[];align=center;fontSize=12;image=img/lib/mscae/Person.svg;" parent="1" vertex="1">
          <mxGeometry x="590" y="620" width="51.8" height="70" as="geometry" />
        </mxCell>
        <mxCell id="SP_JeRSVCv52ay304UxJ-20" value="" style="image;sketch=0;aspect=fixed;html=1;points=[];align=center;fontSize=12;image=img/lib/mscae/Person.svg;" parent="1" vertex="1">
          <mxGeometry x="694.87" y="740" width="51.8" height="70" as="geometry" />
        </mxCell>
        <mxCell id="SP_JeRSVCv52ay304UxJ-21" value="" style="image;sketch=0;aspect=fixed;html=1;points=[];align=center;fontSize=12;image=img/lib/mscae/Person.svg;" parent="1" vertex="1">
          <mxGeometry x="600" y="810" width="51.8" height="70" as="geometry" />
        </mxCell>
        <mxCell id="SP_JeRSVCv52ay304UxJ-22" value="" style="image;sketch=0;aspect=fixed;html=1;points=[];align=center;fontSize=12;image=img/lib/mscae/Person.svg;" parent="1" vertex="1">
          <mxGeometry x="410" y="810" width="51.8" height="70" as="geometry" />
        </mxCell>
        <mxCell id="SP_JeRSVCv52ay304UxJ-29" style="edgeStyle=orthogonalEdgeStyle;rounded=0;orthogonalLoop=1;jettySize=auto;html=1;" parent="1" source="SP_JeRSVCv52ay304UxJ-23" target="SP_JeRSVCv52ay304UxJ-20" edge="1">
          <mxGeometry relative="1" as="geometry" />
        </mxCell>
        <mxCell id="SP_JeRSVCv52ay304UxJ-23" value="" style="image;sketch=0;aspect=fixed;html=1;points=[];align=center;fontSize=12;image=img/lib/mscae/Person.svg;" parent="1" vertex="1">
          <mxGeometry x="612.4300000000001" y="870" width="51.8" height="70" as="geometry" />
        </mxCell>
        <mxCell id="SP_JeRSVCv52ay304UxJ-30" style="edgeStyle=orthogonalEdgeStyle;rounded=0;orthogonalLoop=1;jettySize=auto;html=1;" parent="1" source="SP_JeRSVCv52ay304UxJ-24" target="SP_JeRSVCv52ay304UxJ-20" edge="1">
          <mxGeometry relative="1" as="geometry" />
        </mxCell>
        <mxCell id="SP_JeRSVCv52ay304UxJ-24" value="" style="image;sketch=0;aspect=fixed;html=1;points=[];align=center;fontSize=12;image=img/lib/mscae/Person.svg;" parent="1" vertex="1">
          <mxGeometry x="730" y="860" width="51.8" height="70" as="geometry" />
        </mxCell>
        <mxCell id="SP_JeRSVCv52ay304UxJ-25" style="edgeStyle=orthogonalEdgeStyle;rounded=0;orthogonalLoop=1;jettySize=auto;html=1;entryX=0.42;entryY=-0.038;entryDx=0;entryDy=0;entryPerimeter=0;" parent="1" source="SP_JeRSVCv52ay304UxJ-17" target="SP_JeRSVCv52ay304UxJ-22" edge="1">
          <mxGeometry relative="1" as="geometry" />
        </mxCell>
        <mxCell id="SP_JeRSVCv52ay304UxJ-26" style="edgeStyle=orthogonalEdgeStyle;rounded=0;orthogonalLoop=1;jettySize=auto;html=1;entryX=-0.037;entryY=0.638;entryDx=0;entryDy=0;entryPerimeter=0;" parent="1" source="SP_JeRSVCv52ay304UxJ-17" target="SP_JeRSVCv52ay304UxJ-21" edge="1">
          <mxGeometry relative="1" as="geometry" />
        </mxCell>
        <mxCell id="SP_JeRSVCv52ay304UxJ-27" style="edgeStyle=orthogonalEdgeStyle;rounded=0;orthogonalLoop=1;jettySize=auto;html=1;entryX=-0.037;entryY=0.534;entryDx=0;entryDy=0;entryPerimeter=0;" parent="1" source="SP_JeRSVCv52ay304UxJ-17" target="SP_JeRSVCv52ay304UxJ-18" edge="1">
          <mxGeometry relative="1" as="geometry" />
        </mxCell>
        <mxCell id="SP_JeRSVCv52ay304UxJ-28" style="edgeStyle=orthogonalEdgeStyle;rounded=0;orthogonalLoop=1;jettySize=auto;html=1;entryX=0.648;entryY=0.975;entryDx=0;entryDy=0;entryPerimeter=0;" parent="1" source="SP_JeRSVCv52ay304UxJ-20" target="SP_JeRSVCv52ay304UxJ-18" edge="1">
          <mxGeometry relative="1" as="geometry" />
        </mxCell>
        <mxCell id="SP_JeRSVCv52ay304UxJ-35" style="edgeStyle=orthogonalEdgeStyle;rounded=0;orthogonalLoop=1;jettySize=auto;html=1;entryX=0;entryY=0.25;entryDx=0;entryDy=0;" parent="1" source="SP_JeRSVCv52ay304UxJ-31" target="SP_JeRSVCv52ay304UxJ-34" edge="1">
          <mxGeometry relative="1" as="geometry" />
        </mxCell>
        <mxCell id="SP_JeRSVCv52ay304UxJ-31" value="" style="image;sketch=0;aspect=fixed;html=1;points=[];align=center;fontSize=12;image=img/lib/mscae/Person.svg;" parent="1" vertex="1">
          <mxGeometry x="4.8700000000000045" y="970" width="51.8" height="70" as="geometry" />
        </mxCell>
        <mxCell id="SP_JeRSVCv52ay304UxJ-36" style="edgeStyle=orthogonalEdgeStyle;rounded=0;orthogonalLoop=1;jettySize=auto;html=1;" parent="1" source="SP_JeRSVCv52ay304UxJ-32" edge="1">
          <mxGeometry relative="1" as="geometry">
            <mxPoint x="200" y="930" as="targetPoint" />
          </mxGeometry>
        </mxCell>
        <mxCell id="SP_JeRSVCv52ay304UxJ-32" value="" style="image;sketch=0;aspect=fixed;html=1;points=[];align=center;fontSize=12;image=img/lib/mscae/Person.svg;" parent="1" vertex="1">
          <mxGeometry x="5.329070518200751e-15" y="1060" width="51.8" height="70" as="geometry" />
        </mxCell>
        <mxCell id="SP_JeRSVCv52ay304UxJ-37" style="edgeStyle=orthogonalEdgeStyle;rounded=0;orthogonalLoop=1;jettySize=auto;html=1;" parent="1" source="SP_JeRSVCv52ay304UxJ-33" edge="1">
          <mxGeometry relative="1" as="geometry">
            <mxPoint x="200" y="940" as="targetPoint" />
          </mxGeometry>
        </mxCell>
        <mxCell id="SP_JeRSVCv52ay304UxJ-33" value="" style="image;sketch=0;aspect=fixed;html=1;points=[];align=center;fontSize=12;image=img/lib/mscae/Person.svg;" parent="1" vertex="1">
          <mxGeometry x="56.67000000000001" y="1120" width="51.8" height="70" as="geometry" />
        </mxCell>
        <mxCell id="SP_JeRSVCv52ay304UxJ-34" value="Uber" style="rounded=1;whiteSpace=wrap;html=1;" parent="1" vertex="1">
          <mxGeometry x="206.67" y="920" width="120" height="60" as="geometry" />
        </mxCell>
        <mxCell id="SP_JeRSVCv52ay304UxJ-40" value="" style="shape=mxgraph.signs.transportation.car_1;html=1;pointerEvents=1;fillColor=#000000;strokeColor=none;verticalLabelPosition=bottom;verticalAlign=top;align=center;" parent="1" vertex="1">
          <mxGeometry x="410" y="990" width="99" height="88" as="geometry" />
        </mxCell>
        <mxCell id="SP_JeRSVCv52ay304UxJ-41" style="edgeStyle=orthogonalEdgeStyle;rounded=0;orthogonalLoop=1;jettySize=auto;html=1;entryX=0.339;entryY=0.022;entryDx=0;entryDy=0;entryPerimeter=0;" parent="1" source="SP_JeRSVCv52ay304UxJ-34" target="SP_JeRSVCv52ay304UxJ-40" edge="1">
          <mxGeometry relative="1" as="geometry" />
        </mxCell>
        <mxCell id="SP_JeRSVCv52ay304UxJ-43" value="&lt;b&gt;Local Environment&lt;/b&gt;" style="text;html=1;align=center;verticalAlign=middle;resizable=0;points=[];autosize=1;strokeColor=none;fillColor=none;" parent="1" vertex="1">
          <mxGeometry x="-80" y="150" width="130" height="30" as="geometry" />
        </mxCell>
        <mxCell id="SP_JeRSVCv52ay304UxJ-44" value="&lt;b&gt;push&lt;/b&gt;" style="text;html=1;align=center;verticalAlign=middle;resizable=0;points=[];autosize=1;strokeColor=none;fillColor=none;" parent="1" vertex="1">
          <mxGeometry x="155" y="48" width="50" height="30" as="geometry" />
        </mxCell>
        <mxCell id="SP_JeRSVCv52ay304UxJ-45" value="&lt;b&gt;pull&lt;/b&gt;" style="text;html=1;align=center;verticalAlign=middle;resizable=0;points=[];autosize=1;strokeColor=none;fillColor=none;" parent="1" vertex="1">
          <mxGeometry x="510" y="108" width="40" height="30" as="geometry" />
        </mxCell>
        <mxCell id="6efsPeROO5TJuNPJJTds-2" value="" style="shape=image;verticalLabelPosition=bottom;labelBackgroundColor=default;verticalAlign=top;aspect=fixed;imageAspect=0;image=data:image/png,iVBORw0KGgoAAAANSUhEUgAAAjoAAAGxCAIAAADktYsRAAAgAElEQVR4Ae29CXQc1ZX/X5JtMGQlEyaTZSCBJMNkksnkZCEkQXb+mfOfkzlnzu+cOZlFhrCE7ItJmDkEcPyTgRgCBAgQdswSMMQYCEvLsixvGIMxMRiMjGl1q1sty9a+Wir1ou76RXrSq6dXS9+uftVd3frW8bHue1X96tZ9991P3VevqzXDYcvlcrqu53I5h/1mdWdnp1mwk4hNpWY2uwbMOmJThmFAK9iK+Q38yjAMojPAVrCVGW2DF0U1UTlRJvo3wED3b9gKtuJDDGCgOwNsBVuxgQNc5UkfMVQwVDhjcMNBdwbYCrbiA0dVFAWugCtMnFLnyhCCEYKVh2DWIB5eUObzgCvgCrgCrmaDsKq7YIRgZgFKCIat6LYCroAr4Aq4YhHDAK7o6SNsVXpbAVfAFXAFXAFXsxYofQhmJ8ZkICUTBa6AK+AKuAKugCvTAlwKGkSBK+AKuAKugCseoqnOgMnA0meiwBVwBVxRIxRWBtIjFGwFW/FbAFVoB66AK+AKuEJ2xUMr1RlUhWB24qBNuwVTK00veovFYkW3ob4BaEW3KWwFW9EtQD8SfgVb0S1AOVLLOmyZTEbX9Uwm47DfrE4kEmbBTiI2lZzZ7Bow64hNZbNZaAVbMb+BX2WzWaIzwFawlRltgxdFMRmIyUBMBlLnf/A8Bs9j+KQhJgPpzqDKVsAVcAVcAVezQVhVWAnmkw9oxSxA+YZTMG0FXAFXwBVwxaIT3moxbQdiNAfaS28r4Aq4Aq6oEQqTgfQIBVvBVrM3QYay2yDgCrgCroArZFc8tFKdAdkVnceqbAVcAVfAFTVCIWOgRyjYCrbitwDAFTeFvYCv3RGn4BFWEFb4EFIVVliDGIMYg8wTVPkVsitkV8iukF3NAktVWAGumAWAK+BKz+XyMAYZAzKG2QCs7jEvQjBCMHcqA341Ywsij1XdBiG7ykM+VYZGsEOwQ7ATLUC/o8IYhK2Y52hp503Xdeed5p54PG4WHCRKU5Mzm0MDZjWlqXQ6Da3S6TRslU6n4Vds8FCcAbaCrcxQG7woqrE7F+v/yWRS1/VkMmndJdXE43GpRioSm2JDRfqsVCQ2lUqloBVsxZwHfpVKpYjOAFvBVmLIDVoUxWQgJgOx1ELxUosJXW/tn7jrje4LN0fqQ2Hbfz/d2v7owZ6+ibQ0PyYWiQ8G8KSWPlcGW1W0rYAr4Aq4UoarbM7YdXj0ku0xW0TZVl73Slf7yKRIKS4DV8wU7H6fm8VWgK0Wgq2AK+AKuFKDq309x1ZuKwBUIr2u3dvVp8uZFkLwQgjB7BrxHTWKtwNXwBVwpQBXf4oMrnCY9xOx5CJ/tzkaHtLF1IEygBHsmAVgK2aH6s5EgSvgCrgqFle37+924VBBu3Z1jXJiIQQvhBDMrhHZFcXbgSvgCrgqClcPtvYWBCT3g1c0ht/sn2AhjDKAEexgK2YB9j+yK9EaNjLuCxBWFsJQYdcoefvzh0fd8eNh70WbI/16pqJXcNnayho7iAOnukMwbMUsQHEGZFfIrpBdecyuEqNJDzSifOSXuzqAK4434IruDNVtK+AKuAKuPOLqqj2dFPZ4O6alY5hyv4l7c/q9OWxV6bYCroAr4MoLrl7tGffGIeKnfrAlOpmZ0nW80FnZb9ECV8AVgp2XYMf8xvo/8Ya6ulP+iggr/7szTgSP58OeahsArvDu84IYU92RQdOL3mKxWNFtqG8AWtFtClsVaqtwn/oVFlaqXbKDOrLQg4X2IP340hyJHqTYWcs6bJlMRtf1TCbjsN+sTiQSZsFOIjaVnNnsGjDriE1ls1loBVsxv/HDrza83W+lix81sYExjEE/etCMKRaJOHCgVTabLbGt8OwKz64wnVvwdO6lz3f4ASdrm08c6sGPkVb3BFdFTH1bH1uUZYoSuAKugKvCcJUzjCLft2TFklPN7/58GLgCrrCQndERuAKugKvCcDWamnKii/L61S90AFfAFXAFXOUoy64wVDBUxJmQzs7OzjG/vh1spd1PtkaBK4xBjEHgCriajcPSi4XE6MxkLK/nNuns7Hx7ULdyxb8a4Aq4Aq7YAMRkICYDMRlY2GTg0fGUf3CSWv5xC7IrfE14OlbjltEwDOAKuAKuqLHAMKZtNZnJSlDxr3jFrjiyK2RXwBWyK0wGzk5xYTKQeOvKcGUYxgVNEf8QJbZ8w95O4Aq4Aq6AK+AKuJq1QKG4unrPYREq/skb8b0rA5OB015KdNHqRjsmAzEZiMlAaiwwZiYDDcMItQ/5hyix5Wj/KLKr6g7B7I4JMxwUHgNXwBVwVTCuSrPaYuW26XcGAlfAFbIrBnUt6ryFw2Hnneae1tZWs+AgUZpqm9kcGjCrKU1Fo1FoFY1GYatoNOqTX13cEhbTID/kO/e0oQf960Ezplgkitl98iuLLmYFtEJ2hewK2VXB2ZVhGK/1+vt7V9/ZHDmWwu9dTd9VI7tCdjWbXbE/1v8pM4nsU5h1ha2YJyy0sNLwoo+/JtzYPgS/Wph+ZY3GwBWzCbIrZFfIrrxkV39Zzt4x6tfbmP5nZ5weoYy5BSC2YY5VEsm30G44bC0GW3GzBC0VAa6AK+DKI64Mw9jZqf53Gi/aHOmdSANXPGgConRnqG5bAVfAFXDlHVeGYax7s1fhOosVjeE3+ycKSomQXdGjOWxV0bYCroAr4KooXBmGccurR1URa9fhUZ5VEGelEIIrOgSz7g7atFswtQKugCvgqlhcGYaxMTxQJLG+2xwND+mcVQjB3BTVPcEVTDAEUyvgCrgCrhTgyjCMl4+O/WRruzdoXbu3q0+ffl4lbsiumDWAK/q9S3XbCrgCroArNbgyDGMql9vROXLxtgKgdf0rXe0jkyKluAxcAVeFOgNwxS1mL2DWFWEFYYWPjVwuN6HrbUP642/3X7arwzbZOr+p7bq9hze3DwxOZvgHrQL8Cn7FvYLoDMAVt5i9AFwRPQmPxOlzGlVjq+RUtmM0ua/n2HPtQ1s6hg/0T/TMLFKv7rDCIgUiAyID8wRV3q7pRW+x2PSLOIO2QSt6j8BWsBXdAvQj4VewFd0ClCO1rMOWyWR0Xc9kMg77zepEImEW7CRiU8mZza4Bs47YVDabhVawFfMb+FU2myU6A2wFW5nRNnhRFEstsNQCSy2ULbWgz3aqmh7BtBuzAKbd1E67BdOvgCvgCrgCrlh0wrvPp+1AJB9uOEpvK+AKuAKuqBGqahaAzNLJ8gchuPQhmHUClqVQ7hKAK+CqynF1yy23rF+/3v03edlQ2RjufyI84P5v3Z/bpQO2JUbEsE8ZdS6/4ZTO5p5sm9VhY7j/sYPddK3SWUdnLlIrDxcItNPJB1sRbQVcOY5wNkRxv0n0JJcQXN5gF41GFy9e/MlPfnL9+vXZbFZUhsssmteHPP5A8N7uY1JT7nR0sVUxL8ydSNtfXaX3IMYgepCNL+AKuKry7CqVSp133nnazHb66afbQqtIXF24OTKgz37ht5g8pshfKAau8t4lII+hky+AtgKugKvqx1U0Gq2pqdE0rba2tqam5vTTT3/kkUfETKtIXNWHwqt3J5gnecbVcDLzl7fces7w6kNh4Aq4qu5MFLgCrqofV6lUasWKFccddxzLsRi6TjvttIcffphBq3hc1YfCf4oM0m9dpbCSM4wrX+oshlXAla7rwJXkV3yOWhSId1TIrkSjyXJ1G5pd7QJc/7PcstXV1VnqbCrOOussm9r5VZSm6ma2L33pS4xV0v+nnXba1q1bleDq3Ma2+GiSGAskb3+ufahIVgFXwJXLM1Ex2hJdFLgSjSbL0gCWd8+UK9fQ7HIWJq7WCFtDQ8OqVasaGhqEOnvxF7/4hf2OuVpiU6tntnPOOYclVRxXx89sv/zlL1mY03W9eGCs3B6bzExR4qbo7fHR5LmNbcWfHZOByK5Ev7INofQJgCDiKu286bruvNPcE4/HzYKDRGlqcmZzaMCspjSVTqehVTqdDoKtli1btnr1arP/yqTVpz71qdraWsaq448//l3vetcVV1zR09PDFVOCq/pQ+PevHaGYnXv7RDK1spAfHHGh2oie5JdjFQrSyvpxsYbSFMYgsxhslU6nubeLXmSV89pKYzS2/p9MJnVdTyaT1l1STTwel2qkIrEpdknSZ6UisalUKgWtAmKrurq61atX834si1ZPPvkkB9VJJ520du3agYEBrlIqlWJauZCgoF0vJAbzDhzu7XftP1pQ4y4HD09MihclykSzc63Ez0oysSmMQe5XeZ0BtiLaCkstsNTC36UWy5cvX7NmDZ+XKMt07mc+8xlN004++eRbbrllctLmtxCZVi4kKGjXhU1t/ZafBuYWYAJjQJEr1yWtMBmIyUDmV5KzScWyjMFUKiWpIRUpWgFXwFWV4+qpp5762Mc+tm7dukzG8bcQ1eJqdl27q2elUqm+Y3qRK9eBKx7yKMGOHbwAnx9zKzGhcm0FXLkGFQMv/Zz2cKJ/297ZlT272rt3r21GJY5h5biqD4WfbBsQTyHJyVRqzYsJiTdFFpFdIbuyHYOS7xGHs2H4eyPrQSvgCrjy1ynLjiv6AC6SFtLHVzSGI8M2E49slD75dp90fPFF4Aq4ont7JdoKuAKugKvZ9LF4YEgt/HRb+2TG5j1+qlauS6cDrioxBLPbF0xRUnI+4Aq4Aq78wlV9KHzzviPSpEdyKrtye0wijZIicAVcIbuShptcxH0B5b5gwd5DLdjJQE6gF7pGxTFz5+vdfJdaAbgCroArcazZyMAVcMXcwnaoAFfi+9r3dh9TiyixNeAKuLIdg1LUrtx4hclATAZiMtDHyUCGk+n3teeMAT1z4eaICBi1MnAFXAFXEpvlIrKryr1bYX3paw8iu2JMejw8sKbod6674w24Aq6AK5lPUtnXYCedC2BgBqkgpwSu3BmjcC9wBVxVUGTwENs1vegtFosV3Yb6BqAV3aa+2qqurm7VqlV0ZfiRvmrFzyIKCslRlqYGxsbFyym7XPoepFwytKJYiR0TNFtpWYctk8noup7JZBz2m9WJRMIs2EnEppIzm10DZh2xqWw2C60CYqtly5Y1NDTwLgyIVlwfJjCtysIYhSc9lnQcrUSzYwxms1nYio+OoEVRLLXAUgsstfB9qYVCJrk0hclATAZW+WSgNIHIi3hKVHFPiXjfMSEgPYhnVy6AUbsLuAKugCspDMpFLLUICBikjgmIVsCVWia5tAZcAVfAlRQG5SJwFRAwSB0TEK2AKxfAqN0FXAFXwJUUBuUicBUQMEgdExCtgCu1THJpDbgCroArKQzKReAqIGCQOiYgWgFXLoBRuwu4Aq6AKykMykXgKiBgkDomIFoBV2qZ5NIacAVcAVdSGJSLwFVAwCB1TEC0Aq5cAKN2F3AFXAFXUhiUi8BVQMAgdUxAtAKu1DLJpTXgCrgCrqQwKBeBq4CAQeqYgGgFXLkARu0u4Aq4Aq6kMCgXgauAgEHqmIBoBVypZZJLa8AVcFXluIo6b+Fw2Hmnuae1tdUsOEiUptpmNocGzGpKU9FoFFpFo9Eg2OrMM89cuXKl2X/B0ErUh8nhcNiFBBWxq9V1vFKcAWOQO4PVQ6Qa2Kr0tsI7A4t9Z2A6m3uxa/SaPYlzGh3j3aoXEs3x4fH01ALMRJFdlQx1yK6QXVV5diXNIPFiQKaSuD5MCJRWE5nsU5HB722JEuPReZvabtnTPjiZkS5KLBIvsIKcErgiukfxhwFXwFUFRQYx7hnG7Gum3XsQ2ZXH7OrpyOB3vP6Q+X0HepJT9ucFrrgTlz4TLR4Y5W0BuHIPdsy1Su9X0EoVRIEre2zwoGk1dHIqd90rXUUGpkuf7xiyS7OAK2750oeVIvu07B8HrgAGa7ziA4oLxCBjGP7+tBDXhwkUrYCrwnA1nMxctqtDSWD6UUt7YjTpoc8Mw6ggp8RkoBJvoTQCXAFXFRQZPIQ+4KoAXKWzucsVsYpFnx9siUo5FuUWA7ii344VZCsKEoJ8DHAFXAFXEgXlYuknbcrllLe+dlR5tLrihY6pnIlM4Iq7V+n9SnnnlrhB4KpckYE7rSQQh7MRvGk3diGlH4PuPYjsykSF5GqsyO9WtiZGfIo+D7T28lMT/ZtrxT9oFYhN+T1UMBnok9tYmwWu3IMdGyNBC8HQilmAEq+AKxKu9Ez2u83UBevWOOJes6IxfHQ8Re+zgia4yj6AgSv33le4F7gqu7ezUcz/p4RgdjAgSrEVcEXC1cNv9SkMK9amrtvbBVzxQV6uAWztl8qqAa6Aqwqad5HGO3AlGWRekWIdlsf0juklCFvhIZ34XTlkV6wj6T2YSs0mr/M8QCiwpkrQy06n+K+nW//Pgzud9hLrgSvgqspxpRe9xWKxottQ34BCrZ4N9xLjRTGH3bP/iHor0FpUaCvrCevq6latWmWtz1vjq1a2Zy+m+4r87Bd+vOajy/+tyEYGxsZtr6tclaXvQcqVQiuKldgxQbOVlnXYMpmMruuZTMZhv1mdSCTMgp1EbCo5s9k1YNYRm8pmswq1+r+71XzRyj0Y/ailfSqbJV5gYG2VTCbN3pqRli1b1tDQwCuJF6i2B61acX2YUF6tJicnTzrppJqamnA4LCpWXq1ETUQZWjFrVNAYFLsvSw4yARyDeHaV59lV/7FSzAQykkWGJ5VPcJV9eqSCllqUy1a33377cccdt2TJknPOOUeYoSS9RY0djwf1xIFjYMk47e18wfQr4CoPrt7sGXXPihTu3ZYYIY66CpqhBq5EAnGZ92AqlTrppJO0ma2mpiYSifBjiM6AEEx/6AtbVbStgKs8uNrdOaQQSO5NbXi7nxiheLDjoc0qEJvyewADV9auERfL3HrrrUuWLGG4WrJkybnnnsuPD0gPcn2YAK2YHSpoDFZNDwJXeXDVGO13Z4zCvXfs7ybGggoaKsCVFCzEYCemVoxYtbW1iUSCHUN0Br9vOCT9oZXYg5JxpCJspdZWwFUeXG08VIplgYx51+7tIvo3cEWf0wiyrW699dbjjjuOgYonWOeffz4b5ERnAK7ozgBbVbStgKs8uNrcPsBYUoL/f4/sSrg7rfrlA2NjY/ypVW1tbU1NDU+w4vF4RYcV1o1V34PE7/OVawmPMJjmiZV7GwRc5cHV3q7hEoCKneLRQ3h2ZY6rqg92N954o6ZptbW173//+7/5zW+eccYZp59+em1traZpF110EXDFXSHI+TFX0laoXDCwywnaGASu8uAq3H+sZLjaHB8m+ncFDWA8u7INZKOjoyeffPIHPvCB2267LZlMrlmzZvny5blcbv369Z/85CcXLVqUSCSIzmBgcXYlL84OJhiCqRVwlQdXE5PJb29qKw2x2obwvSsztgftzk7tAP7jH/942223pdNp1izDFZNzudyGDRtuu+024IoZpIJuzpjC/H/0oNoeBK7y4CqVSl2393AJcPW9LdEc+SaxggYwsisevERB6kERV/wwBDu1wY61Vt23QZJfcV8Shcr1Ky3tvOm67rzT3BOPx82Cg0RpanJmc2jArKY0lU6nFWq1uSRr2e/cf5RdJOUCA2uryclJs6tmpGXLlq1evVqspFyg2h60aiXqw+TyarV69eply5YFTSurPkGwFbRyskA6na6gyGC9irxjUGM0tv6fTCZ1XU8mk9ZdUk08HpdqpCKxKWZo6bNSkdhUKpVSqFXP6HgJsqt9R0dSqRTxAgNrq8nJSanL6urqVq9ezSuJF6i2B61acX2YUHatVq9eXVdXFzStJH0CYitoZWsBVllBkUG6CsoYxGRg/snAVCr1iM+/d7V6d2HfDGU9LSb4VjkgKT8mA61dI77Vgu3FZKCtlVhlBXm7dBUBGYNVoxVwRcKVnsl+Z3PEvxwrPppkLkX07woawMCVFCxYUepB4MrWSra2sj2SOHAMrKIkPyAPoK2AKxKuDMNo6fDrC1j3vNHDRyBx1EnBjn9cFIhN+e2UwJXYKVyWehC44paxCpKtrAfgO2rcJtVtK+CKiivDMH7/2lHlCdbluzrSWVMHImMqyCmBKx5KREHqQeBKNI4kS7aS9rIiceD4fXMm6QatmEFU9SBwZaJCcjWrodPZ3KXPq/ypxh9siQ4nM+J5if6tqvvZqX1d2gtcif3LZakHgStuGasg2cp6ALIrbpPqthVwVQCuDMMYTmZUEesHW6KxkdlHVtzbgCtuCl8hys/CBKLZ/bs3B66kHhGL1R2C2ZUuKG8XO5fLlDEIXBWGK8MwJjPZtS8X+8XhS5/vGJqcl1exbqP0mXVdGe9yUSA25V8IZsoguxI7hctSCAauuGWsgmQr6wHIrrhNqttWwFXBuGKesTE8cEGTx5cz3XegJzllf14iYyrIKYErHkpEQepB4Eo0jiRLtpL2siJx4Ph9cybpBq2YQVT1IHBljw3udi6GnkhnN4YHLmqmLnA/b1PbrXvaB+2SKn46on+7aFVoU34PYOCK94goSD0IXInGkWTJVtJeViQOHL+9XdINWjGDqOpB4Mo7rlhPpLO513qP3bP/yE+3tdeHwtZ/P9gSvfP17pePjv3ly1sLcIYauJJCmO0ABq5srWRrK9sjAYaFYCvgqlhcifPmo6mpyPDk7iNjz0QHd3aOHhrUpQdUwBXCim1YAa5sIWRrK9sj4VcLwVaaXvQWi8WKbkN9A9CKblNfbVVXV7dq1Sq6MvxIX7XiZylU8EmrVatW1dXVFaoMP94nrXj73gRoRbcbbEWxlZZ12DKZjK7rmUzGYb9ZnUgkzIKdRGwqObPZNWDWEZvKZrPQKiC2WrZsWUNDA+/CgGjF9WFC2bVqaGj4y6vrg6aVpE9AbAWtbC3AKqs7imIyUOVkoO00hViJyUA/Jm2uvvrqF154QbSzKKt6zMva9KkHMRkodpkkV0QPSjqzoh/ebnsiXlndtgKugCvDpxDMhlAJllq8+uqrmqYtX7785Zdf5uOWCxUxgIEr3l9WoSJ60Kq2+FTbdq9Y6esYFE9U0VoBV8BVxePKMIxvfOMb2sz2r//6rwcOHBDHZ0UEO+BK7DJJrogelHRmRWRXzA6qenCB4ur1vvGN4f7HDnZvDPc/ER5w+bfhrd4Nb/XyAw70T1j90rNTHh1P8ZaZQNcqlUpZNRFrPGslNsJkYlO2TlmC7MowjBdffLGmpkbTtOOPP76mpuZb3/pWJBJhyttqJV0j8QL9+9YOcCX1iFisiB4UFeZy2f2KayIKlavVAsXVQwf7rF+QotRc0BTpm0iLfe85uc4U98Jc4EoadV/5yldqa2tZjrV06dLa2trzzz8/kUhURLADrqQxJRYrogdFhbksuSivtwqYDKTYCriy+WKvO7cu39UxlZs3hUgxNHNQ0Skf9opMpt5///d/s9Bc6P+LLduiRYssdSorli5d+l5he8973iOU7MVCL8r2+Nra2pqamg9+8INf/vKXl+fb6urq8h2y3PDtx/2AK2sE5zXAFf2euLptBVwVjKv6UHjD2/18LNE9SQx2b/ZPuEMx797//M///Kjrduqpp55yyimnnnqq61HTOz/ykY+4H0Ns6tSZzbYpToJly5adffbZy5Yt4zVOwllnneW0i9VLTZ1xxhkStGpqahYvXnz22Wdfcskla1y3hoaGVatWNTQ0uByladODRbzhEH2Ay8R7FymsAFfcgFZBspX1AG9j0LYdelPQqvS2Aq684GpFYzgyPMndnRiheLAbS019f0s0L5DcD6iUyUBuJSYUaivp42JRbCqbzX74wx9mj680TVu8ePGJJ564evXq4eFhJWFlx44dNTU1vAdFNSRZ1EraJRYlrYAr0TiSLNlK2suKRLP714PQytYCrFJVDwJXXnBVHwr/dFv7ZCbrbagU//sj9aEwcCVGqMcee4ylVkuWLFm6dOmvfvWroaEhhUMFuOLBSDQ7r7QVfMpEbc8FrZhZVIGBtRa0HgSuPOKqPhS+ed8R1qkFDZXm+LB72kTcC1xxs+dyuU984hOapi1duvTyyy8fHBwUI5qSAbx9+3ZkVx68XewIq8x70LpLrFHSg7zBoIVgphi0ojgDcOUdV/Wh8M7OUfoErmEYr0US397k8VeyJIwBV9y/n3rqqRNPPPHyyy8fGBjgUYkLSoLd9u3ba2tr/ZtKwmQg7y+roKQHebMAAx843CZOQtBspUWdt3A47LzT3NPa2moWHCRKU20zm0MDZjWlqWg06q7VrS+qYcb5m8J/PjStG0WrcCS6csvbEnU8F9va2kyjOEgUrfLairVNaaqUPShqdfPNN+/bt8/BBlElWj388MO1tbX+2WrlypVnnnmm9RIoZvdPK6s+otmd9vJ69zFIb0pJD0IrbgFivAqgXyG7Kiq7+sszpMt3dWSyWV3Xc/NXt1tvWB5o7fUMJ+sHkV0RbxKV3Jtv27Zt0aJFBlYGGgbR7P7ZyjqyCprhCFrGwC4HWlH8CrgqFlf1ofBjh/ry4qr4lesSsYArin8bhgFc0aO5EltxnCAEE10UaCe6KHClAFcrQuHXjw67ZFdKVq4DVzwOMoEYC5SE4K1btyK7KsjsCMHEEMysCrRThjNwpQBX9aHwD7dEj6WmpHjKi0pWrgNX3J5MoPi3quxq69atixcv9i8EY6mF1LliUckNB28QYCAOHP+8nfeFKFC0Aq7U4Ko+FL7+lS7R+lxujA1JpFFSxGQgxb9V4aqlpQW4Yi5NNHsAgx3TH7iq3B4ErpThqj4U3t45wik1OzbGkqpWrkuQA66Io07JvXlLS8uSJUv8C8HIrqSBIxaV9CBvELgiDhz/vJ33hShQtAKuVOLqvE1t4vva09ncJTviEmZUFYErin8rzK6AKxZciGYPYLBj+gNXlduDwJVKXLF17fx97fcd6FEFJ2s7wBVx1Cm5N9+yZQtwBVyJ2YASv+INAqKU4QxcKcZVfSi8/q2+6RdY9I5bGaOwBrii+Leq7GrLlp9hPpAAACAASURBVC3HHXecge9d4XtXc4QBruhLH1XZCrhSj6v6UHh31+h3m4t957o724Ar4Goucvr1sya8fVEgmt0/tIvKcBlaMVOoAgNrLWg5H3DlC67cSaNkL3BFjFBKBnBzczOyKxbCiGYHrujJB2xFtJWmF73FYrGi21DfgLtW6944qoQZZWxEocncbaXwRAU1FSitnn322eOPP17XdZ+0WrVqVV1dXUH2EQ/2SSvxFB5kaEU3GmxFsZWWddgymYyu65lMxmG/WZ1IJMyCnURsKjmz2TVg1hGbymaz7lo9qPT1fWWBVjKZNO1iJ6myVTabJTZVyh4ssVZNTU3HH398Xr/yrFVDQ8OyZcukbiSa3T+tJH1YEVoxO1Sxt/N+d4+inr2dty8KFL/CZCAmA/HkI/9rWzdv3rx06VL/Jm3wvSv+FMoqKJnO5c0G7XkMUwxaUSaZgSvgCrgCrmaDOcBAfIiiasUpIMotAFxxU8jCQwf7yjKDp/CkWGpB8W9VYaWpqQnZFRtFRLP7l4nKg3mmDK2YWar7hgPZFbIrZFf5s6umpqYTTjjBvxCMyUBbCC2EEMyuEZOBlBsO4Aq4Aq6Aq1lYVPe9OcDALEABQzBtBVwBV8BVflxt2rTpxBNPRHZFf7Tjn61m0Tr/T+WG4GCCIZhaAVfAFXAFXM3GfmRXdB7DVqW3FXAFXAFX+XHV2NiI7IoxDXkMswNwBVylZm/zHP6oGipYGSgaGI958/pVY2PjO97xDv8muLDUQnRISQYYSg8G1gVBiwzIrpBdIbsiZVfAFQthedHOYRO0YBfMEAyt6H6lpZ03Xdedd5p74vG4WXCQKE1NzmwODZjVlKbS6bS7Vg8c6K4PVSqomOaTk5OmURwkJbZibVOaKmUPllirZ5555h3veEdev/Ks1erVq5ctW2btRorZ/dPKqg/9AqEVbMX9R1Vk0Fiibf0/mUzqup5MJq27pJp4PC7VSEViU+ySpM9KRWJTqVTKXavqwJVkHKmoylapVIrYVCl7sMRaPf300+985zvz+pVnrVavXl1XV4celCzAilXsV/x63eOVZ7/i7YsCcTj75+2iMlymaIXJwErNsfBWC+KsFBsPfIbKVsjb1HPPPffOd74Tz67oD1H8s1VBPdg2NLnuzd7vOf/43I9a2h95q6/rmPnUPK8zMAWU+BW/FkycUswOXAFXeHaV/9nVc8899653vcu/EIylFjxwWwUPYMgZxivdx654oYPNnFP+v2pP55v9E3Qee9DKemm8BrgCrrgzyAJWBooWwVDJO1SAK+4weW3FjyyXXx0cmLhkR5yCKOsxV7yQ6Bid1HU9l8vxC7EVgKvSox3ZFbIrZFf5s6tnn30W2RWL2gHH1c7O0XMaixrU5ze1vXx4CLgyjMBFBuCqKM+23p2VrAbProhxU8ld8LPPPvvud7/bvwGMyUDbDIZV0ntQ4c+uNsWGXFRS9aZ/fopyZaJcAVshaFoBV8BV4O6h2MgJ1FB55plngCvWL8S7BP/QbhtYc7nc42/1qL1ZfKX7mO25WCUdonkTtdLbijLbGUCtgCvgCrjKPxkIXPHAHUxc7e89tkL1NykvaGrrHEvyC5cE4ArPrszlpJJzsKKqoYKlFqJ5A5XHcMUCpdUzzzzznve8x7/7TUwG8n63CnnB0K+nL2iKqE2tWGsrt8WSU1mrSpgMZDYhBuS8PUgkH7IrZFfIrvJnV08//TRwVVCE8g/tVnjc+tpRP1jF2nyibcB6RuCqIGcArmxdyKx0vzdHdmVaKnjrf5hu7j1IvB1TFVaefvrp9773vf6FYGRXokNKsnuwi48m/WNVfSh8QVNkNDUlqaTKr3izgfL2wGqF7ArZFbIrUnYFXLEoRpz/8Q/tPJgy4eo9h33FVX0o/GBrr3RS4KogZ3C/4aA3pelFb7FYrOg21DfgrtW6N3ycPfB78LD2FZrM3VYKT1RQU4HSasOGDe9973t1XfdJq1WrVtXV1RVkH/Fgn7QST+FBLoFW3SPqV1hYx+/3miMTHq6/kI+UwFaFqDN7bNC00rIOWyaT0XU9k8k47DerE4mEWbCTiE0lZza7Bsw6YlPZbLa8Wh05cuTFF1809Z6TyqvVnBbyX2iV16+efPLJk046yT+/amhoWLZsmdQxebXixy/YHmyKDVnp4kfNwf5xbm0mVFO8ki6NF4PmVwt0MtDvJx8PPPDAqaeeap1AwAx10KaSiBMRTz311EknnWT49pwPz66sg4XXuEwllWAmkMHv4YN9XB8muGjFj6xQb+f6By1eAVe+vBkMuOIeLwkVOoCfeuqp973vfcAV/T7PP1uJHvWjlnaGE7//X/vyYfG8eHbFrEEczqrQDlwBV1hqkX+pBXDFgzUxQpUAVznDUP7VYCfs/WJHnFuACapCMGstaHlMMLUCroAr4Co/rp588klkVyyEBQdXo6kpJ7oorz+3sY1dPv8fuKKn2qpsBVwBV8AVCVd/9Vd/5V/GgGdXHANWwSnYHR1PKceSS4MTmXmvt3DSStQ/OGivDq2AK+AKuAKuZqNZZYXgiXTWhS5qd53b2CZFisqyFXA1awHMulrvobDUQhweomy1lbhXlAPlV0888QSyK9Y7gerBcxvb1GLJqbWfbYuJzomlFgU5gyq0I7uS7pkknzS8GRq4ku04Vw5UsJtTKn929cQTT7z//e83sJDdyG8rbtUS3HD8fHvMCTBq6xte7OTXxQRvkUFqhBdLYCt+rgodg4ZhAFfAFSYD84fgjRs3Alcs3gUq2Pn6clsReA/he1ccd4JAdAZVaAeugCvgioSrk08+GdkVfTGYf7YSoqXxQteoCBX/5NaBCfG8mAxk1gCuJK+YVyRapzRDhWtm1QqTgdw4kmC1lXQALwZqemTjxo3AFeuaQPXgRCZbgq9efWdzJGu5rVWVMTCrBsrbgzkGpycDo85bOBx23mnuaW1tNQsOEqWptpnNoQGzmtJUNBotr1bXXXfdhz/8YVPpOam8Ws1pIf+FVtFo1N2vbrvttve9733++dXKlSvPPPNMuWPyacWPX8g9+Ksdvq+2uOGFNm5qLlRTvOIXJQlB8ytMBlrumvitxYzg7R4K2dV8K5qlQN2bc7XyavX444//9V//tX9ZO753xfvCKriPwdiIv793dW5j29BkplCt2PF5/Yo3i+yKYivgCrjCs6v8z642bNgAXAU2BPu64OLRQ/0cKqLgDtHA2ipoTx+5SYErbgobgWIdzw9UkV3ZWHymimh2//IYW8XyarVhw4YPfOAD/mmF7Mq2X1hlXjD06ekLmiL1IfU/tfqTre36/JdZcD3zalXRYGCXGbScD9kVsitkV6TsCrhiISwv2nlAL2Wwe7VH/e80nrepLT6a5JcjCcAVnceqbAVcAVfAVX5c/fGPfwSugoyrXC732MFutQnWS0fGJESJRVUhmLVZSrQH84aDohVwBVwBVyRc/c3f/A0mA+k31P7ZSmQGl1mwW3egRxWxGtuHeOO2AnBFdwZVtgKugCvgKj+uHnvsMeCKRW3KXTA7siwZQ1N8+JzGoh5ind/U9vLhoVzOl8hgS76yoD3vBQZQK+DKF6fEUgunYRnwYOekNnDFLRP8HjzQP+H5XYJXvJDoGJnUdT1vNFeVMTDDlgXtvE+dhKBpBVwBV8iuSNnVBz/4Qf/uN7Ey0Clieludm8sZLx0Zu/T5Dvrc4NV7Dr/ZP/2mJSKPgavS2wq4Aq6Aq/wR6tFHHwWuGFGI0dw/tNuCzUmr+Gjyqcjg6t2JFXYzhN/e1HbNy4ebYkN9E2nerFNT/AAmAFfAVUryCalI9KSyDxVMBkodx4uV0oNcYSY8+uijH/rQh/zzK2RXksHFohIwpKZynWPJ13rH178a2xwffr1v/Oi4fbQhuqgSrfhlBm3ajSkWNK00vegtFosV3Yb6Bsqr1d13333KKadYr6q8Wln1YTXQyskyvP7BBx/84Ac/qOu6T7ZatWpVXV0dP12hgk9aFaqGdDy0kgziUoStXIzDd2lZhy2Tyei6nslkHPab1YlEwizYScSmkjObXQNmHbGpbDZbXq3uv//+U0891dR7TiqvVnNayH+hVV6/euSRRz70oQ/551cNDQ3Lli2TOiavVvx49CBsxZyhmqIod28u4NkVnl3h2VX+Z1fr16//8Ic/jMlA+uMK/2zFJ9BEgTiDB60qugeBK+AKuMqPq0ceeQS4YngAGJgd8OyKTj5VtgKugCvgioSrj3zkI/7dm2OphZgqSbKqYMeaDdryAWjFLEC5DQKugCvgCriaBUQQwDCamnoiPCD+2/BW74a3esUaq7wx3P+nt3vzfre3oBuOpyOD1hPxGhet+EvcKSEYuAKuyhyCsZB9Nv5Z/lToAH744YeRXdHDCjvSWx5zeMz7zy02x/O86I+Oq43h/nqvv0gyoM/+nGOFejsftd56kH+cC6pug5BdIbsqM9q5T0tCoIbKww8//Ld/+7f0YJf3Nl8awGwycLllq6urs9TZVJx11lk2tfOrKE3VzWzzP2dTojS1fPlyb1qddXbdN6592BsqztvU5vRtKu5dFL9q7Rmx/VoxUSvgilubCZK3S3tZkYJ24Aq4Aq7yTwaWAFdrLFtDQ8OqVasaGhose+SKX/ziF3LV/DKxqdUz2/yPyiViU2vWrPGm1SWX/8ozrupD4Uuf78hk3QZ1Xlzp6amfbI0SyWR7GHAlAQm4kgwiF/M6JQXm3t5XZhgGJgPl/pgrE81uGMGC6B/+8Adfs6s588z7W6G24tfgbQwWMxnI4PFQay/XwSrk1ermfUdsIUSvBK4kswNXkkHkYl6nJMYCb4YGruT+mCsTzR5AXJ1yyilB02rOqMFCe5FaFY+r+lCYvayWayIK7pFh1+FROpacjgSuRIN7vumXGjEMA5OBbvMGng0NXFldjdVUKK4eeugh4Ko0PagEV9/fEh1LTdk6oQuu+ibSFzRFnCBErweuJMt7u+mXGpnGVdp503Xdeae5Jx6PmwUHidLU5Mzm0IBZTWkqnU6XV6v77rvvlFNOMZWek8qr1ZwW8l9olU6n3f3q/vvvZx0KW+W1FXcvb7aKDY3TweBy5K/3dHJNRMFJq8lU6rLn4y4N0nf1jJmR092vuGJOWvEDiGavpigqXjuTNcY96//JZFLX9WQyad0l1cTjcalGKhKbYoaWPisVeVNtbW2/ct0uvvhi1/3TO1etWkU5hniY2NS//du/nXLKKZLyqVSqLLayqiHVQCvuV5JleHHdunWsQ2GrvLbiRvNmq9igGlzVh8KhSD9XhgtOWj16sIcOJPcju0cn2On8thW/KC4UFEX5p5wEJ1vx44kXqEqrSp0M3LFjh6Zpy5y3L3/5y847Z/ecffbZeY9hS3vzHmZt6r/+67+syazLRAQ7mDhXxtzF2r5YQ2zKCNiiBn4JgbLVgw8+eOqpp8JW9PfueLaVkslAhpNvb2rrHEtyj2KCrV8dGtRXeP2WFTuX+D8mAyWbq4pXlY0ryShi0dYpxQOI0VyVodmpoRXR7J6DndjFTFbSgw8++OBHP/rRoGnFL7aa/EohrupD4Ut2xNPz17VbbTWenvpRS7vImyJl4Ip7psIxWMFLLbZv315TUyMZRSxanVLcS79JVBLs+KmhVYXi6oEHHgCumBv73YNqcVUfCj/w5rx17dYxeP0rXUXySfo4cMUjHhNURdFKza6Aq1TK/rdQuaP4HVb4ibigyilZg9awwk/EBOIFKtHqgQce+NjHPmZg4tTI/5Vq3k3eelA5rqR17ZJWOzpHJNgUXwSuuA8wQckYrODsatu2bciuJJ+QisRojhBMSbWBK+5dfvuVH7gS17WLuFK1cl0iHHDFvYUJwNW22tpayShiUXRKsZ7LxFGnytDsvNCKaPagQfT+++9HdsV82O8e9ANX9aHw2pcPS2NwKpe7fFeHRBolReCKh1kmqIqilToZuHXrVuBK8gmp6HdYkU7n+SvV1nZYTaDQfv/995922mlBgyg3XaBsVaRWPuGqPhRubJ9+Xzu31fq3+pTAydoIcMV9gAnA1dZFixZJRhGL3CnFSlEmRnNVhmanhlZEs4thRew1USY2paQH161bB1wx4xPN7rkH/cMVW9fOxqDalesSsYArcZwqvJGt1OyqpaUFuJJ8Qir6HVak0yl0StZyoNAOXPHu9tuv/MMVW9ceS3QqX7kOXHH3sBWU3DJW8FKLlpaWxYsX25qGVQYq2HE9oZXfwY6bmgtKhsq6detOP/10zxkDV4YLSrTirVWTXx0eS0nRX23xlj3tv/1zse9cd1dpcBI/z8h9c1pQ5e0VnF0BV/M8wlKoUDDw6whUCL7vvvuAK9Y1fvuVr9mVO2ZU7cVkIB/FTFCGK73oLRaLFd1GwQ0899xzS5YscflYWbRy0YftglZ5TcQPCJSt7rjjjtNOO03X9UBpFUxbFalVpF/BT3ioAo+3drqGjnEjEAX4FcVQWtZhy2Qyuq5nMhmH/WZ1IpEwC3YSsankzGbXgFnHm2publ6yZIm5wyKVRSuLFnIFtOI9KJvGUg6Ure65556Pf/zj2Ww2UFpxm1WTVomRSW+QCM6n+iZSrGsq1NsD61eVOhnY3Nx83HHHSSmnWAzUVBJXDFr5PZXETc0FJRMR995778c//nFDWAbN25cE4gUq0Yqfupr8CpOBvFtFAX5VwUstgCu8hKmUA/jee+/9xCc+AVxR3gDCg6w3iAJX3ICiUEpv5+f11oP841xQdXNWqdnV5s2bjz/+eG4OqxA0QzMNoRVx1AUNDPfccw9wxXzY7x4ErqzRjH6XoAoMwYxXwFXO1jl4ZXV3fzCdMoBa3XPPPZ/85CeDBlHupdV0GwRc8W4VBeJdQnXHq0rFVVNTE7Ir0ZutMtG/EYIpt67AFXcwv/0KuOKmFgWi2YEr0Wg2clnu7JqampYuXWqjzVxVWbSaO7njX2hFHHVBg+jdd9+N7Iq5td89CFzZhg+i2YErW+uZlWUJwcAVllqUcgDffffdf/d3fxc0iPJBWJYxyM/uJHjTCriytWcpvZ0r4K0H+ce5oAqilToZuGnTphNOOIGbwyoEzdBMQ2hFHHVBAwNwxYeY3z0IXHFTiwLR7KrAEMx4BVxhqYX5kwri8BBlDJW77roL2RVzCaIzeL7hAK7EocdlotmBK24xe6E0GcPIyIj4SLyxsfHEE08UFZqcnMxms7ymNFqx0xE9yfMA5hfFhep2SnaZgerBu+6664wzzkAPimOQe6OT4K0HgStbexKDTHVHhorJrvr6+r72ta81Njbqup7L5URc6bp+0003nXPOOWI3exsqYgtMru7uZ9cIW+WNBXfeeSdwxbwlr634IPLmV8AVN6AoEM1e3fFKizpv4XDYeae5p7W11Sw4SJSm2mY2hwamqy+44AJN084444y777773nvvPeGEE1pbWy+77LL3vOc9mqY98cQT4mdLphU7KeUCo9EotIpGo5Voq6uuuur0009HD5bA2186GKkPhSv636uHzFBUid7OtQ9avKqY7MowjKNHjy5evLhmZjvllFOWLFny7ne/e8mSJZqmLV++XLwTwaRNCSZtJIMr/FUb1rK3e3OftLrzzjv//u//Hn5VAr9CdmX1YbrZqzy7sjUN3TolHsA//OEPFy1apM1sXNA0be/evdKFBCrYcd2gFXFOo8R+lVerO+64A7hibpzXVkV6O3DFDSgKRLMDV6LRbORShuAjR46IlNI0rba29utf/7pVrVJqRfSkoIVgbjTYKm8P3nHHHZ/61KfQgyW4kQWu+MAUhbwuyg4GrkSj2cglDnbf+c53JGLt37/fqlaJtWILQKxqSDXQijjqggaG22+/Hbhizux3DwJXUtAoyOzAla31zMoSh+BwOFxbW8vmA2tra7/xjW+YqghSibUCrqr72dXtt9/+D//wD0GDKPf3avJ24Ip3qygQ7xKAK9FoNnLph8pFF13EEyzb1AphpQSTNlZXqOKhAlzx7ibGTc9jELjiphYFotmreAxW6s8zxuNxlmD9y7/8i9ijolx6iOZyeV6Q4XkAi9fF5Op2SnaNgerB3//+98iuWL8Q46ZnbweurOOdfvdZ3ZGhkhayi3124YUXaprmlFp5HipWR6nu7g8gGHgXBA1Xn/70p+FX4hjkPeUkeOtB4MrWnsS7hOqOV5WKq46Ojv/4j/+w7VdW6W2oWBus7u6HrZgF8saC2267Dbgi2ooPIm9jELjiBhSFvC7KDq7ueFWpuDIMY3JyUuxOSfY2VKRGqnv5AL9Y2CpvLACuuLfktRU/0ptfAVfcgKJANDtwJRrNRvbmlNaGqtvQ7HphK+KoC9q022233faZz3wmaFrxQVRNfgVc8W4VBeLAqe4oqulFb7FYrOg21DcAreg2ha3y2urGG2/89Kc/res6bJXXVvwAb7aK9I/WV/g7A7uGjnEjEAVvtiI27vmwoGmlZR22TCaj63omk3HYb1YnEgmzYCcRm0rObHYNmHW8qb6J1JNt/Wte7PyfHfEftkTrQ+Hzm9p+vLX90ufj17x8uKVjKBIvg1amog5SWWzloItZDa24X5lGmS/dcsstn/nMZ7LZrHJb/bl77NZXj1y+q+Nn29q/s3n67a7fa47+fHts1Qsd9x/oeat3JLBjcL6FbErKbWVzjrmqvD04d+B0Dw4ODvKiVSA2VVC8sp5FqgmsrSQ9pWKJbVV5z662xfqvfKmTcv91x+vd8dGkmFCLMpJrbo1qmkriF8UFJdMjt9566z/+4z8qnAw8OjrxwIHu7zZP32m5//vFjlhjbCg15fY1CfQgcTizHjz55JPD4TD3EEkgNqXEr/ip0YMUs1cMrqZyuecPj/5iR8x9bFv3Xru3KzJssyiDYh0stWDDCba65ZZbVOGqZzx95+vd5za2WX3Vpeb7W6JPRwYnM+YPkPJIZxj4PWiD6KJ/MVpDQ4OmaZ///OdFA4oysSngiv6tBlW2qgxcjaamLt/V4TKY8+566GCf9C1eOCUforizy+sMt9xyy2c/+9niwbCzc/ScxjzplIsz/3hre+eYzYQBejBvD3JvP+GEE9gr3A4ePMgrRYHYlKoQzE6NHqSYvQJw1TmW/PHWdpcxTNy19uXD4s0pxTrIrthYgq1+97vfFYmrXM546GAf0VddDrugqW1/77gYXg1kVwY1u7rpppsYqzRN++IXvyiZEd4uGSRoEA06rmIjyQualP266OW7OpJzzwAQgrlrBs0pmWKB0up3v/vdP/3TPxUDhltePeoCoUJ3vXRkjHdfMVqJjSyEmzOeWjFo2T7BQmTgXhGoMRj0dwaOpqZ+1KIgrxJjwU37jrDOgFMG1imZYoEaKkXi6unIoOiExcvnbWoTZwUDZavA+tUNN9zAUysmfOlLX+LacgGRgZsiaH4V3OxqKpf71e5E8QPb2sJz7UOlf0jIPCBo3Q+tmAXyRqibb77Zc3a1v298Rb7lf1YvzVvzs23tx9JT6EFiDxqGIaVWjFgdHR2sBf5/XmdgR+LZVemjaHBx9WxU8Q0pH//nNIaPjqfglHx8AqJ5neHmm2/+3Oc+ZxT+lCg5lfvBlvyr1blzFiTcsb+bdSJ6MG8PXnfddVJqxYpnnXUWHwhMyNsUOwy4Aq5SzBXG01PsK5MFjV76wTfuOwKn5KMUwS6vM3jG1R/f7qe7pYcj2ZQgejBvD5544omMTzU1NZqmLV68mNMrGo3ysVD6EMxOjR7M24PBfXb1wJu9HoZuQR95e3D61SR5f6QK91AYwIZh3HTTTR6yq6HJzHmbCvt+VUE+XB8KX73nsFF4zidGZ1GuVm//zW9+o2labW3tt771rdbWVk3Tbr755ssuu2zp0qWapn31q18VjUCJmwthWUoA/UpLO2+6rjvvNPfE43Gz4CBRmpqc2dLp9Hgy9W2fB3l9KHzjn7sK0srhymarKU2l02nltoJW7hZIp9Pcr9yPdO/BG2644XOf+1yhPfjoQd/vuupD4djQOPwqnU679OCHPvShf//3fx8YGGA9qGnab3/7W+YPv/zlL9/97ndHIhHRPVya4ocp8SveGnrQvQeZoTR2P2X9P5lM6rqeTCatu6SaeDwu1UhFYlOs+1Op1POJoULvMT0cf/6mtpHxibwXyLWSLkosEi8wlUopt5WohiRDK2YQJT14/fXXf+5znyu0B3++veCXsHjw5A2HeuFXLt4+Ojra39/PR0c8Hme44jWpVCoWi/GiS1P8mFQqpcSveIPoQYrZg7jU4qZ9RzwMWg8f2Z0YxGSggakkwpdMb7zxRvbaHvozhs6xpAef9PCRS5/voGslznpZZRY9rfViDXGuLMh+xSYDxYsSZeIFLhBbiZaxyiW2VRBxRXnvp4dRbf3Iva9PL7iw9oFYA6fEsyvDMDzgqik+bHU5n2rejidEp7XKJQ4rTIHAQhS4ojy2N4J3Ixs4XE3lcj4NaWuz1+5JAFcBdMoABrvf/va3hWZXjx7yd02g6M8vvS1/eUgiFnDFDdLZ2QlcAVfcH2ShoKHSp6fFceir/L87YsAVcEVJH3/7299+4QtfKMhWd77e7av3io03vhmXR938ckFjcP5H5RKxqYJsJZ9jfln5DAdwBVzNdzGhRPRv5pSR4UlxHPoqf2dzBLgKclgRnMhGLMivbD4vVOVt6oYbbigUV9fu7fLVe8XG178WE67GRsx7gewzysFgo4pQVS6tgCvgSnDD+WJBTtk+UjpcXdjUBlwBV5TsygOurn+lhLh6FbjK0UMwcEW31fxYLpcKiu3yh+eXKU0F7tnV0GRGvG30Vb4Ek4EzHhPYR+Lz/VkuUfxb1dc5b7jhBvZ7E3Rb3Xugx1fvFRsPHcBkIHA1PUCqOz8OHK5yhuHH+0DFsc3lq1/CUotpF6eHYJkY88tVPFSuv/76QnH1RHiAe5rfwq5DWGoBXAFX+dZ5+xHsVm4rxZcr60Phu17DCxlVTgAAIABJREFUQnbgatoCeRO166+/nv3YBB3tzx8e9ZtSvP2D7VjIDlwBV+XAVclmUfA14WkHR3ZFwNV1111XKK7GUlMcJ74K+Jow5YaDuTrzdjy7wrMr7g+ykPfWlX2ATyW91jvu6/BmjX975iVMWGrBBrDcZ/PLhfbg/E/PKxGbCppWHnBlGMYVL/jyg23S6Njwdj8955vXGZYCH4OWPWZFhfYgvwB876pye1Cbfi15cVssFiuuAfnTY+MTJXjF7TV7EvKJ/S8rt5USlaFVXjP++te//uIXv6jrekG2euxgKb56dbBnpCCt8l6sqgMCq5WmaTfccIOqy1TSTmBtpeTqVDWiZR22TCaj63omk3HYb1YnEgmzYCcRm0rObKyB+9/0fVXVq92jlAsUtbK7uOk64gVms1k/bAWtnCzA6pX04LXXXnvmmWcW2oMDEym/f0Dk8l0dhWrlYi4ltuLtB9bbNU276aabuJ6SQBzOC8RWknGkYoltFbiVgSxnP+bzzzNetaeTmBEvkOkRPlViK8BWv/nNb7785S97mKL0++cZI8OTHrSy7eWqXwbNrhqTgcThHEC/CiiuDMN4JjoozdGrKq4IhbuOpYh9BlzRn2NXsa084yo5lf1ec1SV60rt/O7VozwEOxGI1cPbuX2AK6IzGMFbhBVcXE3lcqt3+/Kk+qnIIEIwH70BdEqmW6CWD1x77bXesivDMF7rHffjq4Q/amkfTU0F0FbctQLVg6JWWBmIlYHcH2SBCHPrvfloaurHW9ulO8oiizfuO8L086yVfHmEZdD8I4EdwFxDWwG2uvbaa8866yzPaH+yTfFXhs/b1BYfTfLOgl8RXZT1IHAFXPGxIwtET7LiyjCM6PDk+U1tRSKKf/zS5zuSU1mmXzFaSVdIbMpzsJNOt3CeMVgvXKwhmt3Wr8R2KKn2NddcUwyuDMNQ+6OjL3SNipcAXBGdAbiieDt3raD5VXAnA7nJ4qPJH2xRMPu/9uXDk5lZVtH7TEmw49cStO5nikGrvMGueFxlc8ZdbyhY135BU9v+3nHuUehBZoG8Pcgtxp5dnX766cuct7PPPtt55+yeupkt72EuTXV3d4tacdlWIF5gdcerCsCVYRhDk5lLn+/gSZIH4cHWXukFHeh+PiqAq7zOcM0113zlK18pPj/eHB8+pzHswYHZR368tb1zzJwDRA9yC+TtQX4kw9X555/f4LytWrXKeefsnl/NbHkPs23q4osv1jQtHjdfTIwxSOnBysCVYRhTudy2xMjK7QW/TvDavV1ssS/3VyZQrINpN9iKWWDt2rVKcGUYxtHx1O/3dxcKre9viT4dGRSnB0R/RrAjDmd2w6Fp2o4dO0QDijKxqWLymHg8DlyJNidOd1UMrti15XK5lvb+a14+nPf+9Lub2+55o0d8HO3BOsAVNzvl2WwxA1jqHRZWrJViTQnCCj/d2rVrv/rVryrUqmtk4oED3T/bln8l0ZoXOzfFhlJTOa6MVQCuiM4AXBHBwHwsaH5VebhicTM5lftz97H1b/XduO/IZbs6Lmhq+8GWaMOLnbfv7346Mtg+Mhk0Qwez+6EVs0DeYKccVxztXcdSje1Dd73RffWewz/Z2n7eprZLdsSv29v1h4N9u7tGB8bG877WUiFEuVbMLLb/57UV/1RgxyCyK8rdZwD9qlJxxYeEkxDYoeKkMKsnxoIFElaCY6tf//rXarMr9CD9Nl+5rYCrSsVV1HkLh8POO809ra2tZsFBojTVNrM5NGBWU5qKRqPQKhqNwlbRaFSJX11yySWf//zn4VdsHFa6X2matn79ejOmWCTKBRbjVzt37tQ0befOnfzMiFeUeIXsyu2RAJ5dIedjFrj66qu/9rWvBXB6hKmHuQTitASeXdGT2gB6O3AFXBkIdnmDHXDFJ2bz2oofGVi/wmRgpU4Gct+ShCpwSumKpCLxApXPm0tqSEVoxQ0SqGB39dVXn3322QG832TmCpStgtmDolbAFXDF/UEWEIK5RRBWiM4QNDBcddVVwBVz4wrtQXEMAlfAFfcHWWD+XR/y8mX+H7W0j6dnXztd/KxrZHhyhdd3CkykzRc4SVdYBQNYuiKpSLzAKs5Er7rqqrq6OsMwvLlxfSj89MzvAHDDFmmrtYSvHtqq+tDBPq6DVShSK6nBwN6cAVfAleSrZrEYXNWHwte/0sXbIsZN23vzyUz2p4RvZdoO8vpQGLjK+wWgKg52V155ZZG4Ordx3jvUi7FVY/uQk5fmrQeu2EuY8FaLvMPZNoryUMwEYkAuxtvFM5ZuqUXegeRyQEvHcEHWsTX0zfuOuJwi7y7gKq9/q3JK1teBujcvHlf1ofDK7TH+gwCebdU5lvz2Ju+/UQBcAVdExthGUREe9Okuz94una4ycHXepraj4ym6dayG3tk5mhdI7gcAVwsKVy+++OLatWvHx2fffX7llVcuW7aMTwb+f2sf+nT9T9wdxnbvna/PvoTb2wBOZ3OX7IjbtkysBK6AK+BKouC8IrMOcTg5HXbp8x2ZbM6bofsm0hc0RZxaJtYDVwsKV4ZhfOELX3jHO95x5ZVXjo2NrVmzhuFq+VXrTjrt7zVN++frHyN6jnTY3u5jnr/Pd++BHqm1QovAFXDlLYrOi+lzBWJT3m7O5k5i/q2M7IqNyYcP9hGtYxjmd4mmcrnLdxX14yPs7MDVQsNVc3OzpmmLFi068cQTv/71r3/qU5/67Gc/W7NokaZpf/2ZLxXKCX78hZsjA3rGwwB+rXecN+JZAK6AKw9R1CTGfInYlAdvn3+e2VIl4ao+FD7QN17ompZHD/V7HtviB4GrhYYrwzC+9KUvLV68mEGrpqZGm9s8p1bMo1bvTiST00PYdkzySjEWDCcz321W8COlwBVwJfoVdzZbIVDPjw3D0PSit1gsRmlDDP2e5e81R/pGp4mVd2NavX50eIWnBfRWDQfGSOd1V4xoK/dGlO+FVk4mbWxsnCPU7N+aRYs/8I9nWt2j0JoNb/U4ndRaP6HrDbsVzBDUh8Lr3jhqbd+nmsD6laZpzc3NPl01pdlDhw5pmnbo0CF+cGBtxTUMgqBlHbZMJqPreiaTcdhvVicSCbNgJ7GmCh3PTsdf/VKCqNVYMvPDFgU3pEyTY0lHUyi3Vd4LTM5sdsY266AVs0WRtvr85z/PEizOrf//xsednJNev6Ix/FbvqNlbdhLvwacjA/SW3Y98sLXX7lSzdUXaSmqZGBlK7+2apm3fvl3Slhe52XmNrVCMrdrb2zVNa29v5y0H1lZcQ1uhBLYSz1thk4FsKDbHh2xTV7Gys7Pz+le63IduQXsxGbgAJwMNw9i5cyefBly8ePEHPvvlgtzG5eCfbG3n69pF1+Uym7SJjUye2+h95bqkACYDMRlYwZOBfGxIgvJLkoZNMUW+rl3SWSxufD1WzCmsnwWuFiauDMOoq6vjCZaS1Ip71+37Z9e1i67L5VwuN3xsYuV2lZ4MXAFXymN7ySJDRWZX9aEwW9fOB7YkHB1Pfdvry5Z4KJEE4KpkTsl6MziPeXfv3s1WW/zzP/+z5BXFF9m6dsmBWTGXy93+qsoZgvpQGLgCroAr2+E2W8msU/zAllp4qLXX9qyZbO7S59U8lxbPCFwtWFwZhvGNb3xD07Q9e/aILqFEZuvabT355aNjSk4hNgJcAVfAle1w8xdX9aHwm/0T1hM//FafOD5VycDVQsbV7t27v/nNb/K3WqhyKtbO6t2JnOVn1wb0zIWbi/1uu1VP4Aq4Aq6s1DBrfMqu6kPh72+JjqXM97UbhvFm/4R1iCqpAa4WMq4Mw+jo6PAJV/Wh8BPhAXPAGEYuZ6zenVDit1IjwBVwBVyJY02W/cNVfSi89uXD/Hxjqanvb1G2cl0a58DVAscVczPJK1QVVzSGI8OT3JOfigyqallqB7gCroArPtBsBF9xVR8KN8Vm17V7/hEgaUjbFoEr4Mq/7Ko+FP7ptvbJzPRvqsVHk55/lc3WdcVK4Aq4Aq5sKMWr/MZVfSjcOZZs7hgWh6VyGbgCrnzFVX0ofPO+I8mprNqV69JA+AN+nrGzEz/PWOir7HgwlwQi+RboOwOlsceLl+yIn1fEjwDxdlwE4Aq48htX9aHwL1W8jtnFjZFdIbsiMsYQXhQuUYoXiU0pw1XaedN13XmnuScej5sFB0nXdZchVBG7RvSkw8VNV6u1lcuJ2K7JmS3vYdAqnU6rtVVF+KqLkg8c6HZxG7W2IkYGF3188nZN01paWlzOSxk4xdgqEolomhaJRLgOgbUV19BJ8NtW4nk1xj3r/8lkUtf1JHtxtHW3UBOPx4WSjciachlCFbFreGLS5tpmqpTbKq/Z2VBx0ofVQytmB7W2qghfdVHygQPdLm6j1lbEyFB6b2e4crIDceAUY6u2tjZN09ra2rgOgbUV19BWKIGtxPNW6lstXAakT7swGYjJwBJMBvrkvbxZTAaWeDJwQtdb+yfueqPb5Vt0P9vWfu8r7X0TaT7JZhVKPO3GFAjOm2WYPsBVmI9kdwG4Aq6AK2P6O2G5Cn1Qz0NwaZZaZHPGrsOjlxTyysfrXulqHzG/zyBCi2h2louIH7TKxKaMAD67sl4Mq1F+Se4wCP5e4Aq4Aq6AKx4w3cGwr+fYym0e30187d6uPl3OtIgB2V0rn2J7ySIDsitkV0bQUn42qIKpVfDvq9w1xGRgCSYD/xQZLPJXYf/yy9HhIZ2jkX6XAFyJRrORiWHFfRQFfy+yq5LdQwFX/g0H4MpvXN2+v1tV9+3qGuUBF9mVYRjIrpBdIbsq4HmMqkhUrnaAK19x9WBrr8KeXdFovsUbuAKuqKyqD4WRXSG7wrMr+qyUEbwH9Txr92mpxfOHRxWyijV10eZIv56hmx2TgTwftRcwGUi88QnyALbv2rla4gVW91BhxlAej0rcILIrn7KrxGjSp6785a7pnwLAGER2hexqOggTbziQXSG7osfNIPuVH9nVVXs6fcJVfSjc0jEMXAFXwBVwNW0BYiwArgqyVWBvg5Tj6tWecf9YVR8K/2BLdDIzRfm6W3XPcGCpBZVYeHaF7Aq4Aq7YnLBhGCIY/ndn3Fdc1YfCT7UNAFeaXvQWi8UobfjdnX63PzA2TrlM92OItnJvRPleaEU3qd9u5nf76944Sr/YIo8MrF9pmtbc3Fzk1fGPh/vUr7CwusElO0hhlmulRAhaD2pZhy2Tyei6nslkHPab1YlEwizYSawpawdUVs2xpKMplNsqr9mTM5udsc06aMVsodZWleW0Vm0fbO01XcQiqbUVMTKU3ts1Tdu+fbvl6mcriAOH22rD2/1WO/tRExsYK72tnKzE6gu1lUtrlKYwGYjJQCy1wLOr2SkucYKLz3pJAv053wJ5dnXp8x1+wMna5hOHehb4hDxwBVwBV8AVcGVCmchjhvacYRT5viUrlpxqfvfnw8CV2U+iROwzg7wM2qkPKqUeSy0W+FBho6NS3NVJT3zvSu33rkZTU06mVl6/+oWOBT4GkV0hu0J2hexq9k4Vk4H0pY/MVp1jfn072Eq7n2yNAldiTmXKyK4kd0F2tcCHCrIrZgHlkaH0fqXwe1dvD+pSoPC1WHpbmUiwk4jOoOo2CNkVsitkV8iuZkORqrDCmlsISy2Ojqd85ZPY+I9bkF3ZMZOeERt4dlXIOxECO4AdvGC2usT3UEEOdmL4qEQZz67UPruazGRL5gZX7Ioju7KPVMQIBVz5gfYF7pTAlX8RELhSiyvDMC5oivjXX2LLN+ztXOCRAZOBmAzEZCAmA2fvWTEZSL/75La6es9hESr+yRvxvSv73MqHCS7/erE0LWOpxQK/s2MjpTTO5t9Zbn71qNOQl96D53SY8nmX0vuVwqUWhmGE2of86y+x5Wj/aOlt5eQGrJ7oDBztLq1RmkJ2hewK2dUCyq5Wbou5hAxVYYWdIrBPatXiqjSrLVZum35n4ELHVdR5C4fDzjvNPa2trWbBQQqHwy0HIu7/trzetuX1NvdjWg5Eml/P31TLgUjjvoNKmuJatUUcrm2mWq2t3M40s69tZst7GLSKRqNqbaXcr7iX3re3TbyV9kk+tzF8sM3RcdTaihgZHLWZ26FcK03T1q9fP9e8zV/KwBG1uriFetfruVvv3NNWqFY2FzZXRWkqGo0GrQdLl10t8PuCgN9vutxxe5jNd2mNkvIvTFv9fn+351hW0Ad3d406dRCyK2/e/lqvv7939Z3NkWMp/N6VAVzlnIYuq18gA9jdCETGwFbegh0z/o9a2guijueD736jx6m7F0gPqp0MZMZseNHHXxNubB/CGCzprwkjuzLI31GDrRaarUr5ptSr9xwGrnbs2OFkBG9g6Bj1621M/7MzXsxtkPUyiRcYwDGI7ArZFZZaFLDUwqflAyPJ0r0p9efbHVdbILsqBgw7O9X/TuNFmyO9E+litAKu5lnApwE87xxzhcq9L2BXAFuhB5knSGDw797cOmd4bmOb0z2apNXcsJv3twp60I/JQGajdW/2Wg3uuWZFY/jN/gnWMtHs1d2DyK6cRu7sEK3u7mcXCYgSY4F/0yNdx0r36jngyj9cGYZxy6tHPfNJ+uCuw+aiGKKLVne8Aq6AK0wGln8ycCJdulfP/cz5q1fVHez4zZmvuDIMY2N4QAJPocXvNkfDQ/rsLfPMH+AKSy0W+tfu+AAWB4ZVxlDhNvEvEz23sRTfu6oPhRte7OSXIwnAlaqnRC8fHfvJVo9LPa/d29WnTz+vEjeMQeAKuJoeEf6FYHG8MZk46hagVv+7M17oPbi342/f323tF1YDXKnClWEYU7ncjs6Ri7cVAK3rX+lqH5m07R3iwKnuHsRkICYDgavyTwYahvGHg33e8FPop17A14Q1TflCdifGTOh625D++Nv9l+3qsO2p85varn+l6/H9scHJjG0jrBK4QnaF7Gp6LCC7IsYCX23VOjBhG87UVp7TGNYzWaewWN335uyqlf+AiJMxrYlacirbMZrc13PsufahLR3DB/onemYWqfvqV1b1guDt3rTS9KK3WGz63YtB26AVvUdgqyDYanxCP7/J98dXa3Z30C+2yCMD61eapjU3Nxd5dWo/Hlhbqb3MIlvTsg5bJpPRdT2TyTjsN6sTiYRZsJOITSVnNrsGzDpiU9lsFlrBVsxvKsiv1r/l+3zgy0dHzeFkkSrIVpLuBXm7pmnbt2+XWuBFYlMLxFbcLLZCiW2FZ1d4doXJwEA8uzIMQ89kv9ccVTv7J7a2enfCOgkj1mAy0DqDJ9pHlBeIrcRLtsrEeUVVtgKugCvgKii4MgyjKT4sAkatHHNYdcbDkKqwwhoM7DNRv793xe1JjOYGnh/TfhAYuAKugKsA4SqbM658yZd3ez/8ZjdenczAAFxRfukxgBAFroAr4CpAuDIM41h66meFfFmHkoH9es/hiQX/W7Q856PgamO4/4nwgMu/DW/1bnirVzpgW2KEp1b0eUUnMKSzuSfbZnXYGO5/7GA3Xat01jGyVW7OB1w5dipzuwUyPSKOMatM9G/Yih6h3G3VMZq8cHOEwiHKMf+zMz6Rxo/7zfo1cSE7xbC2x+ztPsZHEHHgGA6TgcW8MHci7fh1hSK14lenyttZgxStgCvgCtlVsLIrNno7x5I/9voWHzGMXrWnczw9RYkFhmG4Q5QeVmYvodPxbU8FNaVcK0p2JdqwIPnCzZEBffYLv0Sz2+KqyF8oBq6Yj8n/B/aBqqzo/DLRk5QPlflayCVoxS0CvxpJZn75fFFvZrrrjW42JwS/Ev3KV1zVh8KrdyfYXTDR7FZcDSczf3nLbUGYlA4GrniPzxMQVjw75Tw7zhSITQGipZ+IYJ1VYm8fn9B3dI78YkfB0Pr1nsMHB2Z/KmmB2Iq+fMBvXNWHwn+KDNLNLuEqZyhYbgNcWaPrdE2JBzDdKe3VnasFGOYsgR4M4mSgFOx2dY1et7frvE15XnvxvS3Ru9/osb4mFd4uensJcHVuY1t8NEk0uxRFn2sfklIlD0Xgivf4PAG48uaU84w4VyA2hexKiuZz9rP5W022Sk3lXu0Zf/RQ/037jly+q+OCpsj3t0T/74uJ63ZHn4oMRobtX+a9MG1l4wozVX4vteBoWbk9NpkhrXARcRUfTSr5KZnqxFXaedN13XmnuScej5sFB4nS1OTM5tCAWU1pKp1OQ6t0Og1bpdNp+BUbPBRnWCC20jStpaXFjCkWSdd1Tp1ihN+/doRidh6vJpKplYq+wzCiJy2XZVYUpJX5MTuJ0pQqv9LYvaf1/2Qyqet6Mpm07pJq4vG4VCMViU2xS5I+KxWJTaVSKWgFWzHngV+lUimiMywQWzFcSbGFF5mtiqGU+NkXEoP0KHrX/qPiZ4uRhycm+RVJAtEZAhhFsZAdC9nx7KoCnl05TW2xekzIE2fRjZln7SV4dsVJc2FTW7/lp4GtvdnZ2VnkynV+RiZU52Sg1XCspqDud2qkoKbYLYCSpphTKmkKWuHJh+hIAEMVRIZS4mp2XXueu2LjYCxR5Mp14Cr/rxcCDPRoDlvBVpx8uA2iO4NyW5UYV/Wh8JNtA7zrrULOMK7YoewlJoxbyK6sdp6uwf1mFdxv2nftXC3xApWHlbnz2/+FVtwuGINEZ2DxqvS4WtEYdlm3+XRkkDFG4f/AFR8d8wQMlYKGyjzbWQrEpgCGMt6bWzptXoXYg5HhSW8B6PtbomMp6puTWAiep8T8QjFro0dTU/Mbq4bnfKXHVX0o/NNt7ZMZm/f4FdM7Lt4FXEl+O1sErsQIZW+juVrYakHZyjOu6kPhtS8fVmKr5FR25faYS1xz3zWamtph2Zqbmy11NhWPP/64Te38KkpTLTPb/M/ZlChN7dix4/HHHy8LrupD4Zv3HZmLBLN/i+wdl74DriRTzxYRgpWEFWZNYlPIrqo7u2JhKNQ+WPw7XO58vdslqOXdNZqa0qpx27Fjh304m/udwLyW8XbAC12j4nmL7B0XHYAr0c6mDFwRGWPgOd9cLMj7O4HVYatisqv6UPjbm9oi/aPF2Gpv9zGXiEbZVZWTgWbwspPYcKYYx8Mx4vvai+8dFwWAK7u+RQheYCHY3glmapHzSTlfkbiqD4V/vr09NWXzwEPqBdtbxgE9U/yPZgFXLkjwtmv6fe05Q0nvuCgAXEljZLZoO1TEQ4nJB4KdFOxEG0oybFURtioeV/Wh8H0HeqTetxatYzCXM1bvTriEM+Iu4IpoqIIOezw8sOalzoI+UujBwJV1mEzXWIeKdBxwxQ0CWxGdoTr8Sgmu6kPh13rHuQvZCla/eqJtoNAAZ3s8cGVrluBXVieu9KK3WCxWdBvqG4BWdJvCVj7ZqrVnRElcu2hzpHvkmIuSUg+29oysaAwrOXXvyLjLed13SVq5H1yyvUStlFivjI0MjHnvON4XRFvx4/0WtKzDlslkdF3PZDIO+83qRCJhFuwkYlPJmc2uAbOO2FQ2m4VWsBXzmzL6VdvghKqAdeVLnVPmOJAl0dsnUpmfbm1Xdd7hybR0sgXiV6oMWK52jiUdQ3fl9iBecZvnZV54SlQRT4lsp8hYZRl7UNVkIAt5z7UPOV2mOBl4874jCkMkJgMVGrOUTVXnZKDTAFhQzxicjGAYRhmDHbRysUBFQFQtrtgP1NrahONqV9eo2pgIXKm1Z8laA65sRwqWWlTDa2nsu3aulnjvArRLEFWLq/pQeOX2WNJuXTvDVd9E+oImxW9KBa5KBhi1JwKu5qLX/L/8zm5+tVlCsOO2gK2IzmBUxYpT5biqD4XvecNmXXtnZ+dULnf5rg61Ia8+FAaulJu0NA0CVzzqzhMQghdUCJ7X9/MLyK78zq5YpLOua+/s7Nzwdr8fcRC48sOqJWgTuJofnOZKwBVwxXwBuCoNrr7bHB1OZubG3/Tf3W93qFq5LkVS4EoySKUUgStxgJgycAVcMW8ArkqDq/pQ+MqXOvmS1slM9kfNbT6FUeDKJ8P63SxwZSJKlIAr4Aq44iNCdAY/nl3xMPd0ZJCdVO3Kdd4+E4ArySCVUgSu+JCcJwBXYoSaZxpLAbZaULbyFVf1oXB8NLmjU82LM5yiMHDlZJmA1wNXlug7U4EQvKBCsL0TzNRiMlCaDIx6/TVhYii8eHvsgia/pgGZDsAVsS+CdhhwZR+pgCvginkGcCXhyu/sqgQhErgqgZH9OEV14irqvIXDYeed5p7W1laz4CBRmmqb2RwaMKspTUWjUWgVjUZhq2g0Wka/2vmm4i/t+hHX3Nt8wy4GLAS/cjdL8Pe22nUcD6MV2oN4ZyBfYGWfOyJjkDIGezPN1MJWkq2QXbl4i2QrlyPL4lfBB5K7htWZXTl5CSa4mGXKMlTy/t45tAp4sGM9CFw5hRdWTwwyZfF2dxgEfy9wZe97eHZFHHVGVbxYyN4JZmrLElaCjHbgysVbAn7DEXwguWsIXNn7HnAFXDHPAK6kEAxc2YeMuVriwCmLX7nDIPh7gas5L5v/F7gijjoD2ZWxsN5eD1zNDxVyiThwgCsPdASuZG9jZeCKOOqAKyn5sPenudoq8Cvgaq4z7f8SBw5wBVwxB8LKQKwMxC+W+ZXzAVf2mJqrBa48cIj4EWRXc142/28V3AXPv6B5pbLc2QV5+cA868wvwFZS+ghczXcQuQRcEdnj4TDgSvY2VgauiKPOwLMrPLsKhT2EnjJ+BG+1KKPxizk1cAVc2VsAuGJ2QXaF7EocIRV9I1sMKoLwWeBKdEVTrminxLSbgZzPt5wPk4FmmLCTiPd5ZbkNCgJyitGhOnGlF73FYrGi21DfALSi2xS28slWrT3+/rpHMeGM+NnekXG6caQjK9qviPYJ7GEDY947jvdj0HpQyzpsmUxG1/VMJuOw36xOJBJmwU4iNpWc2ewaMOuITWWzWWgFWzG/KaNftQ1OBDacERUbnkysAuCbAAACh0lEQVSbw29Ggl+V3a+kHhGLZfR2UQ1JVqUVFrJjITsWsmMhu+MCkAW71AKPCYzgPSYAroAr4Aq4Aq7MZ2tBfqK2wCEKXAFXwBVwBVwBV6YFuBS0ZXTAFXAFXAFXwBUP0VRnKMt6RWRXZj+JEjEjDuD8JruKoN0XQCtmgQXlV1jILoYUq0x0BoBB+j6f1ZK8prpthewK2RWyK+oNdaE3Z8AVD6O2AnDFzYLba4ozAFfAFXAFXGEykIOD6gzVnccwcwQNosAVcAVcUSMUsiv6rFShtjJxYZEABrrZq9tWwBVwBVwBV8iuTEhSZqUMw6huMCC7AhgABr/AYAYbi1TGsIJnV5bemFcBMHBzBG3ajSkWNK20tPOm67rzTnNPPB43Cw4SpanJmc2hAbOa0lQ6nYZW6XQatkqn02X0q0P9x+or7RdDJIUHxyfNsTcnwa/K61dz/WDzt4zebqPNXJUqrTR272n9P5lM6rqeTCatu6SaeDwu1UhFYlPskqTPSkViU6lUClrBVsx5yuhXIxOTb/SM2v7bf3R4/9Fh21288vXukf1Hhl/vHuE1TsK21nanXaye2JRVK90SAeBXZfcrKSqKxTJ6u6iGJKvSCs+uMEWJKcqFNUXJJ6CsAosy1nqxhjiDh6UW9PURsBXRVsAVcAVcAVezPAKuiHETSy2YxxDvXVT5FXAFXAFXwBVwZSaQJQ7B7MRBW9QQTK2AK+AKuAKugCvgyrQAl4IGUeAKuAKugCvgiodoqjOomuBiJw4aGIKpFXAFXAFX1AiFR+L0RzuwFWzFbwFUoR24Aq6AK+BqNrCoCivBvDeHVswCxIdzAbzhAK6AK+AKuAKuZi1AT4mA9tLb6v8BcRfw2zQJLOoAAAAASUVORK5CYII=;" vertex="1" parent="1">
          <mxGeometry x="21.80000000000001" y="1810" width="440" height="334.25" as="geometry" />
        </mxCell>
        <mxCell id="6efsPeROO5TJuNPJJTds-3" value="&lt;font style=&quot;color: rgb(255, 34, 103);&quot;&gt;Developers community - they need some collaboration to work smoothly&lt;/font&gt;" style="text;html=1;align=center;verticalAlign=middle;resizable=0;points=[];autosize=1;strokeColor=#9673a6;fillColor=#e1d5e7;strokeWidth=1;" vertex="1" parent="1">
          <mxGeometry x="115" y="1780" width="410" height="30" as="geometry" />
        </mxCell>
      </root>
    </mxGraphModel>
  </diagram>
</mxfile>
